<?xml version="1.0" standalone="no"?>
<!DOCTYPE svg PUBLIC "-//W3C//DTD SVG 20010904//EN"
 "http://www.w3.org/TR/2001/REC-SVG-20010904/DTD/svg10.dtd">
<svg version="1.0" xmlns="http://www.w3.org/2000/svg"
 width="40.000000pt" height="50.000000pt" viewBox="0 0 1295.000000 1600.000000"
 preserveAspectRatio="xMidYMid meet">
<metadata>
Created by potrace 1.15, written by Peter Selinger 2001-2017
</metadata>
<g transform="translate(0.000000,1600.000000) scale(0.100000,-0.100000)"
fill="#f0f0a8" stroke="#f0f0a8" stroke-width="20">
<path d="M839 15925 c-42 -41 -75 -75 -73 -75 2 0 -4 -9 -13 -19 -27 -29 -38
-44 -59 -76 -10 -17 -24 -34 -31 -38 -8 -5 -11 -12 -8 -16 2 -5 -4 -16 -15
-26 -11 -10 -20 -24 -20 -32 0 -7 -5 -13 -11 -13 -5 0 -7 -4 -4 -10 3 -5 1
-10 -6 -10 -7 0 -9 -3 -6 -6 3 -4 -3 -18 -13 -32 -11 -13 -20 -31 -20 -38 0
-8 -5 -14 -11 -14 -5 0 -7 -4 -4 -10 3 -5 1 -10 -5 -10 -6 0 -8 -4 -5 -10 3
-5 1 -10 -4 -10 -6 0 -11 -9 -11 -19 0 -11 -4 -22 -9 -26 -5 -3 -12 -19 -16
-35 -4 -17 -11 -30 -17 -30 -6 0 -8 -3 -5 -6 3 -4 0 -16 -8 -28 -8 -11 -15
-31 -15 -43 0 -13 -5 -23 -11 -23 -5 0 -8 -4 -4 -9 3 -5 1 -12 -5 -16 -6 -4
-8 -11 -5 -16 4 -5 1 -9 -5 -9 -6 0 -9 -4 -5 -9 3 -5 1 -12 -5 -16 -5 -3 -10
-17 -10 -30 0 -13 -4 -27 -10 -30 -5 -3 -10 -16 -10 -29 0 -12 -4 -26 -9 -31
-6 -6 -12 -23 -15 -40 -2 -16 -5 -31 -6 -32 -2 -2 -3 -7 -4 -12 0 -5 -4 -12
-8 -16 -4 -4 -4 -13 -1 -21 3 -8 0 -14 -7 -14 -6 0 -8 -5 -5 -10 4 -6 1 -18
-6 -26 -6 -8 -9 -17 -6 -20 3 -3 1 -18 -5 -33 -5 -14 -12 -35 -14 -46 -10 -43
-13 -50 -14 -50 -1 0 -4 -13 -6 -28 -1 -16 -10 -50 -18 -75 -8 -26 -18 -67
-21 -92 -3 -25 -10 -72 -16 -105 -15 -98 -18 -117 -34 -247 -2 -20 -6 -74 -9
-120 -3 -46 -9 -128 -13 -183 -10 -129 -10 -701 0 -830 4 -54 13 -102 18 -106
7 -4 8 -22 3 -50 -7 -44 -7 -74 2 -139 7 -58 13 -113 15 -150 1 -19 5 -48 10
-65 4 -16 10 -57 13 -90 2 -33 7 -72 11 -88 3 -15 8 -44 10 -65 3 -20 8 -50
11 -67 3 -16 8 -50 10 -74 3 -24 8 -51 13 -60 4 -9 9 -34 10 -55 1 -21 6 -47
12 -58 6 -11 11 -34 11 -51 0 -18 4 -39 9 -48 8 -16 19 -75 21 -109 0 -8 4
-19 8 -25 3 -5 7 -25 9 -44 1 -19 6 -40 11 -46 5 -6 11 -26 14 -45 9 -66 18
-105 28 -123 5 -10 7 -21 4 -24 -3 -4 -1 -12 4 -18 6 -7 11 -25 12 -41 1 -16
4 -33 7 -39 3 -5 7 -16 8 -22 2 -7 4 -19 6 -25 1 -7 6 -18 10 -25 4 -6 8 -24
9 -40 1 -15 6 -33 11 -40 5 -7 6 -17 2 -23 -3 -5 -1 -10 5 -10 7 0 10 -7 7
-15 -4 -8 -2 -17 3 -20 5 -3 7 -12 4 -19 -3 -8 -1 -17 5 -21 6 -3 11 -19 11
-34 0 -15 3 -31 7 -35 4 -4 9 -19 11 -34 2 -14 7 -31 12 -37 5 -6 12 -24 15
-40 8 -39 13 -59 15 -62 2 -2 3 -7 4 -12 0 -5 4 -12 8 -16 4 -4 4 -13 1 -21
-3 -8 0 -14 6 -14 6 0 11 -13 11 -29 0 -17 5 -33 10 -36 6 -4 8 -10 5 -15 -3
-5 -1 -11 5 -15 6 -4 8 -10 5 -15 -3 -5 -1 -11 5 -15 6 -4 7 -11 4 -17 -4 -6
-2 -13 5 -17 6 -4 12 -19 13 -34 1 -15 6 -27 11 -27 4 0 6 -4 2 -9 -3 -5 -1
-12 4 -16 6 -3 8 -12 4 -20 -3 -8 0 -15 7 -15 6 0 9 -4 5 -9 -3 -5 -1 -12 4
-16 6 -3 8 -12 4 -20 -3 -8 0 -15 7 -15 6 0 9 -4 5 -9 -3 -5 -1 -12 5 -16 6
-4 8 -10 5 -15 -3 -5 -1 -11 5 -15 6 -4 8 -10 5 -15 -3 -5 -1 -11 5 -15 5 -3
10 -17 10 -31 0 -13 5 -24 10 -24 6 0 10 -11 10 -24 0 -14 4 -27 9 -30 4 -3
11 -24 15 -46 3 -22 11 -40 16 -40 6 0 10 -9 10 -20 0 -11 4 -28 9 -38 9 -16
21 -47 26 -64 2 -5 4 -11 5 -15 1 -5 2 -11 1 -15 0 -5 4 -8 10 -8 5 0 8 -4 4
-9 -3 -5 -1 -12 5 -16 6 -4 8 -10 5 -15 -3 -5 -1 -11 5 -15 6 -4 8 -11 5 -16
-4 -5 -2 -9 2 -9 5 0 10 -10 10 -22 1 -13 7 -24 13 -26 5 -2 10 -15 10 -28 0
-13 5 -24 12 -24 6 0 8 -3 5 -7 -4 -3 -2 -12 4 -20 6 -7 8 -13 5 -13 -4 0 -1
-10 6 -22 7 -13 13 -26 14 -30 1 -5 3 -11 4 -15 1 -5 2 -11 1 -15 0 -5 4 -8 9
-8 6 0 10 -8 10 -18 0 -10 7 -28 16 -40 8 -12 13 -22 9 -22 -3 0 2 -11 11 -25
9 -14 13 -25 10 -25 -4 0 1 -15 11 -32 9 -18 16 -36 15 -40 -1 -5 3 -8 8 -8 6
0 10 -11 10 -25 0 -14 4 -25 9 -25 5 0 12 -16 15 -35 4 -19 11 -35 17 -35 6 0
7 -4 4 -10 -3 -5 -1 -10 5 -10 6 0 8 -4 5 -10 -3 -5 -1 -10 4 -10 6 0 11 -8
11 -17 0 -10 7 -27 15 -37 8 -10 12 -23 9 -27 -3 -5 0 -9 7 -9 7 0 9 -3 6 -6
-3 -4 -1 -16 5 -28 7 -11 11 -24 10 -28 -1 -5 3 -8 9 -8 5 0 7 -4 4 -10 -3 -5
-1 -10 5 -10 6 0 8 -4 5 -10 -3 -5 -1 -10 4 -10 6 0 11 -8 11 -17 0 -9 13 -40
29 -69 17 -28 27 -55 24 -58 -4 -3 -1 -6 6 -6 7 0 10 -4 6 -9 -3 -5 0 -15 7
-23 7 -7 14 -20 16 -28 2 -8 8 -17 13 -18 5 -2 7 -8 3 -13 -3 -5 0 -9 5 -9 6
0 10 -3 10 -7 -3 -16 23 -73 34 -73 6 0 7 -3 4 -7 -4 -3 -2 -12 4 -20 6 -7 8
-13 5 -13 -4 0 0 -7 8 -16 9 -8 14 -20 11 -25 -4 -5 -1 -9 5 -9 6 0 8 -4 5
-10 -3 -5 -1 -10 5 -10 6 0 8 -4 5 -10 -3 -5 -1 -10 5 -10 6 0 8 -4 5 -10 -3
-5 -1 -10 4 -10 6 0 11 -7 11 -15 0 -8 5 -15 10 -15 6 0 9 -3 8 -7 -4 -13 35
-93 45 -93 4 0 6 -4 2 -9 -3 -5 1 -16 9 -24 8 -8 12 -17 9 -21 -4 -3 -1 -6 6
-6 7 0 9 -4 6 -10 -3 -5 -1 -10 6 -10 7 0 9 -3 6 -6 -4 -4 1 -19 11 -33 10
-14 24 -39 32 -56 8 -16 21 -36 28 -43 7 -8 10 -18 7 -23 -4 -5 -2 -9 3 -9 6
0 13 -11 16 -25 4 -14 11 -25 17 -25 6 0 8 -4 4 -9 -3 -5 2 -16 10 -24 8 -9
15 -20 15 -25 0 -5 7 -15 15 -22 8 -7 12 -16 9 -21 -3 -5 0 -9 6 -9 6 0 8 -4
5 -10 -3 -5 -1 -10 6 -10 7 0 9 -3 6 -7 -4 -3 4 -21 18 -39 14 -18 25 -37 25
-42 0 -5 7 -15 15 -22 8 -7 13 -16 10 -20 -2 -4 4 -16 15 -27 10 -12 16 -24
13 -27 -4 -3 -1 -6 5 -6 7 0 12 -7 12 -15 0 -8 5 -15 11 -15 5 0 7 -5 4 -10
-3 -6 1 -13 9 -16 9 -3 13 -10 10 -15 -3 -5 0 -9 6 -9 6 0 8 -5 5 -10 -3 -6 0
-13 8 -16 8 -3 18 -13 21 -22 7 -20 25 -49 48 -75 10 -11 15 -24 12 -29 -3 -4
2 -11 10 -14 9 -3 13 -10 10 -15 -3 -5 0 -9 6 -9 6 0 8 -5 5 -10 -3 -6 1 -13
9 -16 9 -3 16 -12 16 -20 0 -8 5 -14 11 -14 5 0 8 -4 5 -9 -3 -5 1 -12 10 -15
9 -4 14 -9 10 -13 -3 -4 5 -19 20 -34 14 -15 26 -31 27 -36 2 -15 32 -63 40
-63 4 0 7 -6 7 -13 0 -8 11 -24 25 -37 14 -13 23 -26 20 -29 -3 -2 7 -17 22
-33 15 -15 23 -28 19 -28 -5 0 3 -12 17 -26 15 -15 24 -30 21 -35 -3 -5 2 -12
10 -15 9 -3 16 -13 16 -20 0 -8 7 -17 15 -20 8 -4 13 -10 10 -14 -3 -5 2 -13
11 -18 9 -5 14 -11 12 -14 -1 -4 9 -20 24 -37 16 -17 28 -34 28 -38 0 -5 12
-19 25 -32 14 -13 25 -29 25 -37 0 -7 9 -18 20 -24 11 -6 20 -17 20 -26 0 -8
7 -17 15 -20 8 -4 13 -10 10 -14 -3 -4 6 -15 20 -24 14 -9 25 -23 25 -31 0 -8
8 -19 18 -24 9 -6 13 -11 9 -11 -5 0 5 -12 22 -26 17 -14 31 -31 31 -38 0 -7
15 -26 33 -43 72 -69 107 -110 100 -118 -5 -4 -3 -5 3 -2 7 4 17 0 24 -8 7 -8
9 -15 4 -15 -5 0 18 -27 51 -59 82 -81 146 -151 137 -151 -4 0 16 -23 43 -50
62 -62 105 -110 99 -110 -3 0 11 -14 31 -31 19 -17 35 -36 35 -43 0 -6 14 -24
30 -39 17 -16 28 -32 25 -36 -2 -5 3 -17 13 -27 20 -23 72 -124 72 -141 0 -6
5 -13 10 -15 6 -2 12 -14 14 -28 1 -14 5 -32 8 -40 4 -8 9 -37 13 -65 4 -27 9
-63 13 -80 7 -38 6 -408 -2 -455 -3 -19 -8 -84 -11 -145 -3 -60 -10 -135 -15
-165 -4 -30 -9 -83 -10 -118 0 -35 -5 -74 -10 -86 -4 -12 -8 -38 -9 -57 -1
-36 -7 -95 -15 -144 -2 -16 -7 -63 -11 -103 -3 -40 -10 -83 -14 -95 -5 -12 -9
-45 -10 -73 0 -29 -5 -64 -11 -80 -6 -15 -11 -51 -11 -81 -1 -29 -5 -55 -9
-58 -5 -3 -9 -18 -9 -33 -1 -33 -7 -86 -15 -127 -4 -16 -9 -48 -11 -70 -3 -22
-7 -51 -10 -65 -4 -14 -8 -43 -11 -65 -3 -22 -7 -51 -9 -65 -2 -14 -7 -45 -10
-70 -3 -25 -8 -56 -12 -70 -8 -31 -10 -41 -17 -109 -4 -29 -11 -62 -17 -73 -6
-11 -13 -80 -15 -153 l-4 -133 36 -39 c20 -21 40 -37 45 -36 5 2 9 -1 9 -6 0
-9 60 -37 73 -33 4 1 7 -2 7 -7 0 -7 16 -13 79 -27 7 -1 18 -7 24 -13 6 -6 21
-11 34 -11 13 0 23 -4 23 -10 0 -5 13 -10 29 -10 16 0 31 -4 33 -10 1 -5 12
-11 23 -13 11 -1 26 -6 33 -10 6 -5 12 -5 12 0 0 4 4 2 9 -5 4 -7 17 -14 29
-15 17 -1 21 -8 20 -39 0 -21 -4 -38 -9 -38 -5 0 -6 -6 -3 -14 3 -8 1 -17 -5
-21 -6 -3 -11 -17 -11 -31 0 -13 -5 -24 -12 -24 -6 0 -9 -3 -5 -6 3 -3 -5 -23
-18 -44 -13 -21 -21 -41 -18 -44 4 -3 2 -6 -4 -6 -8 0 -32 -41 -36 -60 0 -3
-7 -11 -14 -18 -7 -8 -11 -17 -8 -22 3 -4 -2 -11 -11 -14 -8 -3 -12 -10 -9
-16 3 -5 1 -10 -5 -10 -6 0 -8 -4 -5 -10 3 -5 1 -10 -5 -10 -6 0 -9 -4 -5 -9
3 -5 0 -15 -7 -23 -7 -7 -14 -20 -16 -28 -2 -8 -7 -17 -11 -20 -11 -7 -65
-113 -63 -122 1 -5 -3 -8 -9 -8 -5 0 -7 -4 -4 -10 3 -5 1 -10 -6 -10 -7 0 -10
-3 -6 -6 3 -3 -3 -15 -13 -27 -11 -11 -17 -24 -14 -29 3 -4 0 -8 -5 -8 -6 0
-11 -9 -11 -20 0 -11 -4 -20 -8 -20 -9 0 -47 -71 -44 -82 1 -5 -3 -8 -9 -8 -5
0 -8 -4 -5 -9 3 -5 -1 -14 -9 -21 -8 -7 -15 -18 -15 -25 0 -7 -7 -18 -15 -25
-8 -7 -13 -16 -10 -20 3 -4 -2 -11 -11 -14 -8 -3 -12 -10 -9 -16 3 -5 1 -10
-5 -10 -6 0 -8 -4 -5 -10 3 -6 1 -10 -5 -10 -6 0 -8 -4 -5 -10 3 -5 2 -10 -4
-10 -5 0 -13 -10 -17 -22 -3 -12 -13 -28 -20 -36 -8 -7 -12 -17 -9 -22 3 -4
-2 -11 -11 -14 -8 -3 -13 -10 -10 -15 4 -5 -1 -17 -10 -25 -8 -9 -13 -16 -9
-16 4 0 -1 -7 -9 -16 -9 -8 -16 -22 -16 -30 0 -8 -5 -14 -11 -14 -5 0 -7 -4
-4 -10 3 -5 1 -10 -5 -10 -6 0 -9 -4 -6 -9 3 -5 -1 -12 -10 -15 -8 -3 -13 -10
-10 -15 4 -5 1 -15 -6 -23 -7 -7 -14 -20 -16 -28 -2 -8 -7 -17 -11 -20 -11 -7
-36 -54 -33 -62 1 -5 -3 -8 -9 -8 -5 0 -7 -4 -4 -10 3 -5 1 -10 -5 -10 -6 0
-8 -5 -5 -10 3 -6 -1 -13 -9 -16 -9 -3 -14 -10 -11 -14 3 -5 0 -14 -7 -22 -7
-7 -14 -20 -16 -28 -2 -8 -7 -17 -11 -20 -11 -7 -36 -54 -33 -62 1 -5 -3 -8
-9 -8 -5 0 -7 -5 -4 -10 3 -5 1 -10 -5 -10 -6 0 -8 -5 -5 -10 3 -6 2 -10 -3
-10 -5 0 -16 -15 -23 -32 -7 -18 -19 -39 -26 -46 -7 -8 -11 -18 -8 -23 4 -5 1
-9 -4 -9 -6 0 -11 -7 -11 -15 0 -8 -5 -15 -11 -15 -5 0 -7 -5 -4 -10 3 -6 1
-10 -5 -10 -6 0 -8 -4 -5 -10 3 -5 2 -10 -3 -10 -9 0 -37 -50 -34 -62 1 -5 -3
-8 -9 -8 -5 0 -7 -5 -4 -10 3 -6 -1 -13 -9 -16 -9 -3 -13 -10 -10 -15 3 -5 0
-9 -6 -9 -6 0 -8 -4 -5 -10 3 -5 2 -10 -4 -10 -6 0 -13 -11 -17 -25 -3 -14
-10 -25 -15 -25 -5 0 -8 -6 -6 -12 1 -10 -237 -14 -1160 -16 -1178 -2 -1169
-2 -1164 -34 0 -5 -4 -8 -10 -8 -5 0 -7 -4 -4 -10 3 -5 1 -10 -5 -10 -6 0 -8
-4 -5 -10 3 -5 1 -10 -5 -10 -6 0 -8 -4 -5 -10 3 -5 2 -10 -2 -10 -8 0 -32
-53 -33 -72 0 -5 -9 -24 -20 -43 -11 -20 -20 -42 -20 -50 0 -8 -5 -15 -11 -15
-5 0 -7 -4 -4 -10 3 -5 1 -10 -5 -10 -6 0 -8 -5 -5 -10 3 -6 1 -10 -4 -10 -6
0 -10 -3 -9 -7 1 -5 -3 -18 -10 -29 -6 -12 -8 -24 -5 -28 3 -3 1 -6 -5 -6 -7
0 -12 -9 -12 -20 0 -11 -4 -20 -10 -20 -5 0 -9 -3 -8 -8 1 -4 -5 -20 -12 -37
-7 -16 -13 -33 -12 -37 1 -5 -3 -8 -9 -8 -5 0 -7 -4 -4 -10 3 -5 1 -10 -4 -10
-6 0 -10 -3 -9 -8 1 -4 -6 -21 -15 -39 -9 -18 -17 -34 -17 -38 0 -10 8058 -6
8065 5 3 6 1 10 -5 10 -6 0 -9 4 -5 9 3 5 1 12 -5 16 -6 4 -8 10 -5 15 3 5 1
11 -5 15 -5 3 -10 17 -10 31 0 13 -4 24 -9 24 -5 0 -11 18 -15 40 -3 22 -11
40 -16 40 -6 0 -10 9 -10 20 0 12 -7 32 -16 45 -9 14 -13 25 -9 25 4 0 2 7 -5
15 -7 8 -9 15 -5 15 4 0 2 7 -5 15 -7 8 -9 15 -5 15 4 0 0 11 -9 25 -9 14 -14
25 -10 25 4 0 1 7 -6 15 -7 8 -9 15 -6 15 4 0 1 10 -6 23 -7 12 -12 25 -13 29
0 3 -3 10 -7 14 -5 4 -8 18 -8 31 0 13 -4 23 -8 23 -4 0 -8 9 -9 21 -4 51 30
49 -779 49 -650 0 -754 2 -754 14 0 8 4 18 10 21 5 3 10 17 10 30 0 13 4 27
10 30 6 3 10 17 10 31 0 13 5 24 10 24 6 0 10 10 10 23 0 13 3 27 8 31 4 4 7
11 8 14 1 8 12 39 25 67 4 11 10 27 11 35 2 8 6 17 10 20 4 3 10 17 12 30 2
14 5 26 7 28 1 1 3 7 4 12 1 6 4 12 5 15 1 3 3 8 4 13 1 4 7 17 14 29 6 12 14
32 16 45 3 13 5 24 7 26 1 1 3 7 4 12 1 6 4 13 5 18 1 4 2 10 1 15 0 4 3 7 8
7 7 0 19 33 25 72 1 3 4 10 9 14 4 4 7 18 7 30 0 13 5 26 10 29 6 3 10 16 10
29 0 12 3 26 8 30 4 4 8 12 8 17 1 5 3 11 4 14 1 3 4 10 5 15 1 6 4 12 5 15 1
3 4 10 5 15 1 6 4 12 5 15 1 3 4 10 5 15 1 6 4 12 5 15 1 3 3 9 4 14 0 5 4 13
9 17 4 4 7 18 7 31 0 13 5 23 10 23 6 0 10 14 10 30 0 17 5 30 10 30 6 0 10
11 10 24 0 14 5 28 10 31 6 4 8 10 5 15 -3 5 -1 11 5 15 6 4 8 11 5 16 -4 5
-1 9 5 9 7 0 10 7 6 15 -3 8 -1 15 4 15 6 0 10 11 10 24 0 14 4 28 10 31 6 3
10 17 10 31 0 13 5 24 12 24 6 0 8 3 5 7 -4 3 -2 12 4 20 6 7 8 13 4 13 -4 0
0 11 8 23 8 13 17 32 19 43 2 10 6 21 10 24 4 3 10 17 12 30 2 14 5 27 6 30 2
3 2 8 1 13 0 4 4 7 11 7 6 0 9 3 5 6 -3 4 0 19 9 35 8 16 12 29 8 29 -3 0 1
11 10 25 9 13 16 33 16 45 0 11 4 20 10 20 5 0 9 3 8 8 -1 4 3 17 10 29 7 13
10 23 6 23 -3 0 -1 7 6 15 7 8 10 15 6 15 -4 0 1 11 10 25 9 14 13 25 9 25 -4
0 0 11 9 25 9 14 14 25 11 25 -3 0 0 10 7 22 7 13 11 26 10 31 -1 4 3 7 9 7 5
0 8 4 5 8 -7 11 197 31 384 37 177 7 292 13 296 18 2 2 4 29 5 60 1 32 6 60
11 63 4 3 8 18 8 34 0 16 4 31 9 35 6 3 10 13 10 23 -1 23 7 64 24 132 10 38
19 90 24 140 3 25 10 51 15 57 6 8 7 32 4 57 -6 37 -4 48 13 65 12 12 21 29
21 38 0 11 99 -81 244 -226 135 -135 242 -249 239 -254 -3 -6 -1 -7 4 -4 6 4
16 0 23 -8 7 -8 9 -15 4 -15 -5 0 8 -17 28 -38 68 -67 97 -100 92 -104 -2 -3
12 -17 31 -32 19 -16 35 -34 35 -41 0 -8 12 -23 26 -34 15 -12 24 -21 20 -21
-3 0 9 -14 27 -31 17 -17 31 -35 30 -40 -2 -5 2 -8 9 -6 7 1 12 -3 13 -9 0
-15 52 -74 59 -67 3 4 6 2 6 -3 0 -6 10 -21 23 -34 12 -14 22 -27 22 -31 0 -3
15 -21 33 -40 17 -18 32 -38 32 -44 0 -6 8 -18 18 -27 26 -26 44 -48 36 -48
-4 0 3 -8 14 -19 12 -10 22 -22 22 -27 0 -5 11 -21 25 -36 14 -15 25 -31 25
-36 0 -5 11 -19 25 -32 14 -13 25 -28 25 -35 0 -6 8 -18 18 -26 22 -21 47 -52
49 -62 1 -5 13 -20 27 -35 15 -15 67 -70 116 -124 50 -53 90 -94 90 -91 0 3 9
-6 21 -21 11 -14 27 -26 34 -26 8 0 19 -9 25 -20 6 -11 17 -20 24 -20 7 0 21
-9 31 -20 10 -11 21 -17 25 -15 4 2 15 -4 25 -15 10 -11 24 -20 32 -20 7 0 13
-5 13 -11 0 -5 5 -7 10 -4 5 3 10 1 10 -5 0 -6 5 -8 10 -5 5 3 10 1 10 -6 0
-7 3 -10 6 -6 4 3 13 -1 21 -9 8 -8 19 -12 24 -9 5 4 9 1 9 -5 0 -6 5 -8 10
-5 5 3 10 1 10 -4 0 -6 3 -10 8 -9 4 1 17 -3 30 -10 12 -7 22 -10 22 -6 0 3
11 -1 25 -10 13 -9 33 -16 44 -16 11 0 22 -4 25 -8 3 -5 19 -9 36 -10 17 0 38
-6 46 -13 10 -8 33 -9 73 -5 37 4 60 3 63 -4 8 -24 125 -32 363 -26 132 3 254
8 270 11 17 2 73 7 126 10 52 4 108 9 125 11 16 3 56 8 88 10 33 3 66 8 75 13
9 4 34 9 55 10 21 1 47 6 57 11 10 6 31 10 48 10 16 0 42 5 58 11 15 6 42 13
58 15 17 2 37 7 45 11 8 3 26 8 40 10 14 2 29 8 34 14 6 5 20 9 31 9 12 0 25
3 29 8 4 4 12 8 17 8 5 1 10 2 12 3 1 2 12 4 25 7 12 2 34 11 47 20 14 9 25
13 25 9 0 -4 6 -2 13 4 8 6 17 8 20 4 4 -3 7 -1 7 6 0 7 4 10 9 6 5 -3 12 -1
16 5 4 6 11 8 16 5 5 -4 9 -1 9 5 0 6 5 8 10 5 6 -3 10 -1 10 5 0 6 5 8 10 5
5 -3 10 -1 10 4 0 6 7 11 15 11 8 0 15 5 15 10 0 6 4 10 9 10 5 0 23 13 39 30
26 26 30 36 27 77 -5 79 -16 137 -27 144 -6 4 -8 11 -4 17 3 6 2 13 -4 17 -6
4 -8 10 -5 15 3 5 1 11 -5 15 -6 4 -8 10 -5 15 3 5 1 11 -4 15 -6 3 -8 12 -4
20 3 8 1 15 -5 15 -5 0 -12 15 -15 33 -5 32 -22 87 -38 119 -5 10 -9 27 -9 37
0 11 -4 23 -10 26 -5 3 -10 16 -10 28 0 13 -7 33 -16 45 -8 12 -12 22 -8 22 3
0 1 7 -6 15 -7 8 -9 15 -4 15 4 0 3 5 -4 12 -7 7 -12 22 -12 35 0 13 -5 23
-11 23 -5 0 -8 4 -5 8 2 4 -1 21 -9 37 -13 31 -27 64 -30 78 -2 4 -4 9 -5 12
-1 3 -3 8 -4 13 -1 4 -5 13 -9 20 -5 6 -5 12 0 12 4 0 1 5 -7 10 -13 8 -12 10
3 10 9 0 17 -5 17 -11 0 -5 4 -7 10 -4 5 3 10 1 10 -5 0 -6 5 -8 10 -5 6 3 13
-1 16 -9 3 -9 10 -14 14 -11 5 3 15 -1 23 -9 8 -8 17 -12 21 -9 3 4 6 1 6 -6
0 -7 4 -9 10 -6 5 3 10 2 10 -3 0 -9 50 -37 63 -34 4 1 7 -3 7 -9 0 -5 5 -7
10 -4 6 3 10 1 10 -5 0 -6 5 -8 10 -5 5 3 10 1 10 -5 0 -6 4 -9 9 -5 5 3 12 1
15 -4 4 -5 41 -26 84 -47 42 -21 79 -42 80 -46 2 -5 8 -6 13 -2 5 3 9 0 9 -6
0 -6 4 -8 10 -5 6 3 10 1 10 -6 0 -7 3 -10 6 -6 4 3 13 -1 21 -9 8 -8 18 -12
23 -9 4 3 11 -2 14 -11 3 -8 10 -12 16 -9 5 3 10 1 10 -5 0 -6 5 -8 10 -5 5 3
10 2 10 -3 0 -8 34 -28 53 -30 4 -1 15 -8 23 -17 9 -8 20 -13 25 -9 5 3 12 -2
15 -10 3 -9 10 -14 14 -11 5 3 14 0 22 -7 7 -7 20 -14 28 -16 8 -2 17 -7 20
-12 8 -12 368 -190 385 -190 8 0 15 -5 15 -11 0 -5 4 -7 10 -4 5 3 10 1 10 -4
0 -6 3 -10 8 -10 4 1 9 1 12 -1 3 -1 16 -3 29 -6 l24 -4 -7 262 c-8 302 -13
415 -22 443 -3 11 -9 52 -14 90 -5 39 -11 81 -15 95 -4 14 -8 38 -11 53 -2 16
-7 34 -11 40 -4 7 -9 19 -11 27 -1 8 -4 20 -5 27 -2 7 -6 16 -10 19 -4 4 -7
19 -7 34 0 14 -5 31 -12 38 -7 7 -8 12 -4 12 5 0 3 7 -4 15 -7 8 -9 15 -6 15
4 0 2 8 -3 19 -6 10 -13 33 -16 52 -3 19 -10 38 -16 43 -5 6 -9 21 -9 33 0 13
-7 37 -15 53 -9 17 -13 30 -9 30 4 0 1 7 -6 15 -6 8 -9 19 -5 25 3 5 2 10 -2
10 -5 0 -10 12 -11 27 -1 15 -7 32 -12 37 -6 6 -10 19 -10 31 0 12 -4 25 -10
31 -5 5 -11 21 -14 34 -2 14 -5 26 -7 28 -1 1 -3 7 -4 12 -1 6 -3 11 -5 13 -1
1 -4 16 -6 32 -3 17 -9 32 -15 33 -5 2 -9 17 -9 33 0 16 -4 29 -8 29 -4 0 -9
12 -10 27 -1 15 -7 30 -13 34 -6 3 -10 9 -10 13 1 3 1 7 0 9 0 1 -3 16 -5 32
-3 17 -9 32 -15 33 -5 2 -9 17 -9 33 0 16 -4 29 -10 29 -5 0 -10 10 -10 23 0
13 -3 27 -7 31 -4 3 -8 16 -10 29 -2 12 -8 26 -13 31 -6 6 -10 20 -10 32 0 13
-5 26 -10 29 -6 4 -8 11 -5 16 4 5 1 9 -5 9 -6 0 -9 4 -5 9 3 5 1 12 -4 16 -6
3 -8 12 -4 20 3 8 -1 15 -8 15 -7 0 -9 3 -6 7 4 3 2 12 -4 20 -6 7 -8 13 -5
13 4 0 1 10 -6 23 -7 12 -11 28 -10 35 2 6 -2 12 -7 12 -6 0 -8 7 -5 15 4 8 1
15 -6 15 -6 0 -9 4 -5 9 3 5 1 12 -5 16 -6 4 -8 10 -5 15 3 5 1 11 -5 15 -6 4
-8 11 -5 16 4 5 2 9 -4 9 -6 0 -8 7 -5 15 4 8 1 15 -7 15 -7 0 -9 3 -6 7 4 3
2 12 -4 20 -6 7 -8 13 -5 13 4 0 1 10 -6 23 -7 12 -13 25 -14 30 -1 4 -3 9 -4
12 -1 3 -4 10 -5 15 -1 6 -3 11 -4 13 -2 1 -5 13 -7 27 -2 13 -8 27 -12 30 -4
3 -9 14 -10 25 -2 11 -8 22 -13 23 -5 2 -9 14 -9 27 0 13 -5 27 -10 30 -6 4
-8 11 -5 16 4 5 1 9 -4 9 -6 0 -11 9 -11 20 0 11 -4 28 -9 38 -12 22 -23 52
-28 77 -2 10 -7 22 -11 25 -4 3 -9 14 -10 25 -2 11 -8 25 -13 32 -6 6 -12 24
-15 40 -3 15 -9 30 -15 31 -5 2 -9 12 -9 21 0 10 -3 21 -7 25 -4 3 -8 16 -10
28 -2 12 -9 26 -16 30 -6 4 -8 8 -3 8 5 0 3 7 -4 15 -7 8 -9 15 -6 15 4 0 0
12 -8 27 -18 35 -30 66 -28 76 1 4 -3 7 -9 7 -5 0 -8 4 -4 9 3 5 1 12 -4 15
-5 3 -12 22 -15 41 -4 19 -10 35 -14 35 -4 0 -8 10 -9 22 -1 11 -6 24 -10 27
-4 3 -10 15 -11 26 -2 11 -8 23 -13 26 -5 3 -11 16 -14 28 -2 13 -9 29 -16 37
-6 8 -8 14 -4 14 4 0 2 6 -4 13 -6 8 -8 17 -4 20 3 4 1 7 -5 7 -7 0 -12 8 -12
18 0 10 -7 28 -16 40 -8 12 -13 22 -9 22 3 0 -1 10 -10 23 -8 13 -12 27 -8 30
3 4 0 7 -7 7 -7 0 -10 3 -7 6 3 4 1 16 -5 28 -7 11 -11 24 -10 29 1 4 -2 7 -6
7 -4 0 -8 10 -9 22 -1 11 -6 24 -11 27 -5 3 -13 21 -17 39 -3 17 -11 32 -16
32 -6 0 -7 5 -4 10 3 6 1 10 -5 10 -6 0 -9 4 -5 9 3 5 1 12 -5 16 -5 3 -10 15
-10 26 0 10 -5 19 -12 19 -6 0 -8 3 -5 7 4 3 -3 21 -14 40 -11 18 -17 33 -14
33 4 0 0 11 -9 25 -9 13 -16 31 -16 40 0 8 -5 15 -12 15 -6 0 -9 3 -5 6 3 4
-1 21 -10 38 -10 17 -16 34 -15 39 1 4 -3 7 -9 7 -5 0 -7 5 -4 10 3 6 1 10 -4
10 -6 0 -11 7 -11 15 0 18 -42 109 -53 113 -4 2 -5 8 -1 13 3 5 0 9 -6 9 -6 0
-8 5 -5 10 3 6 1 10 -5 10 -6 0 -8 5 -5 10 3 5 1 10 -5 10 -6 0 -9 4 -5 9 3 5
-1 16 -9 24 -8 8 -12 17 -9 21 4 3 1 6 -6 6 -7 0 -9 5 -6 10 3 6 1 10 -5 10
-6 0 -8 5 -5 10 3 6 1 10 -5 10 -6 0 -9 4 -6 9 3 5 -1 14 -9 21 -8 7 -13 16
-10 20 3 5 -1 15 -9 23 -8 8 -12 17 -9 21 4 3 1 6 -6 6 -7 0 -9 4 -6 10 3 6 1
10 -5 10 -6 0 -8 5 -5 10 3 6 1 10 -5 10 -6 0 -8 5 -5 10 3 6 1 10 -5 10 -6 0
-8 4 -5 10 3 6 1 10 -4 10 -6 0 -10 3 -9 8 3 10 -41 92 -58 110 -8 7 -12 18
-9 23 4 5 1 9 -5 9 -6 0 -8 5 -5 10 3 6 1 10 -5 10 -6 0 -8 5 -5 10 3 6 -1 13
-9 16 -9 3 -13 10 -10 15 3 5 0 9 -6 9 -6 0 -8 5 -5 10 3 6 2 10 -3 10 -6 0
-13 11 -16 25 -4 14 -11 25 -17 25 -6 0 -7 5 -4 10 3 6 1 10 -5 10 -6 0 -9 4
-6 8 3 5 -4 18 -14 30 -11 12 -20 25 -20 30 0 5 -7 15 -15 22 -8 7 -12 16 -9
21 3 5 1 9 -4 9 -6 0 -13 11 -16 25 -4 14 -11 25 -16 25 -6 0 -10 7 -10 15 0
8 -5 15 -11 15 -5 0 -8 4 -5 8 3 5 -3 18 -14 29 -10 12 -16 23 -13 27 3 3 -2
8 -11 12 -9 3 -16 10 -16 15 0 5 -8 18 -17 29 -10 11 -18 24 -19 28 -1 13 -39
72 -46 72 -5 0 -8 7 -8 15 0 8 -5 15 -11 15 -5 0 -8 4 -4 9 3 6 -4 15 -15 21
-11 6 -18 15 -16 19 3 4 -6 18 -19 31 -13 13 -22 26 -20 30 2 4 -7 17 -20 30
-13 13 -22 27 -19 32 3 4 -2 11 -10 14 -9 3 -16 12 -16 20 0 8 -5 14 -11 14
-5 0 -8 4 -5 8 3 5 -4 15 -15 22 -10 8 -19 18 -19 23 0 4 -11 20 -24 34 -14
15 -23 30 -20 35 3 4 -2 11 -10 14 -9 3 -16 12 -16 19 0 7 -7 16 -16 19 -8 3
-12 10 -9 16 3 6 -1 13 -9 16 -9 3 -16 13 -16 20 0 8 -7 17 -15 20 -8 4 -13 9
-10 13 2 4 -5 14 -16 21 -10 8 -19 20 -19 27 0 6 -8 17 -17 22 -10 6 -14 11
-8 11 5 0 -1 7 -13 16 -12 8 -22 21 -22 27 0 7 -14 25 -30 41 -17 16 -30 34
-30 40 0 11 -47 69 -89 112 -12 12 -21 25 -21 31 0 5 -18 26 -40 48 -21 21
-37 41 -35 45 2 4 -16 26 -40 50 -25 24 -45 50 -45 57 0 6 -10 19 -22 27 -12
9 -18 16 -14 16 5 0 -4 11 -20 25 -16 14 -29 29 -29 34 0 6 -16 26 -35 45 -48
47 -82 86 -75 86 3 0 -15 19 -40 42 -25 23 -45 47 -45 54 0 6 -16 26 -35 43
-20 17 -34 31 -31 31 3 0 -31 34 -74 77 -44 42 -77 79 -75 83 2 3 -95 105
-216 226 -120 120 -219 215 -219 210 0 -5 -7 -3 -15 4 -8 7 -12 16 -9 21 3 5
0 8 -8 7 -7 -2 -12 3 -10 10 1 8 -1 11 -6 8 -5 -3 -46 33 -93 80 -46 47 -94
90 -107 95 -14 5 -20 14 -16 21 4 6 3 8 -3 5 -6 -4 -25 9 -42 28 -17 20 -31
33 -31 31 0 -7 -53 39 -92 79 -15 17 -33 30 -38 30 -8 0 -24 13 -77 65 -13 14
-29 25 -34 25 -5 0 -20 13 -34 29 -14 16 -25 25 -25 20 0 -4 -7 2 -16 14 -8
12 -20 22 -26 22 -9 0 -42 26 -113 87 -11 10 -22 18 -25 18 -3 0 -20 14 -39
30 -18 17 -38 29 -43 27 -4 -1 -11 5 -14 13 -4 8 -12 15 -19 15 -7 0 -15 7
-19 15 -3 8 -11 15 -19 15 -7 0 -26 13 -42 30 -15 16 -31 27 -35 25 -3 -2 -12
5 -20 15 -8 10 -17 17 -22 14 -4 -3 -8 0 -8 5 0 6 -7 11 -15 11 -9 0 -18 7
-21 15 -4 8 -13 15 -20 15 -8 0 -17 7 -20 15 -4 8 -10 13 -14 10 -4 -3 -11 2
-14 11 -3 8 -10 13 -15 9 -5 -3 -16 4 -24 15 -7 11 -17 17 -20 13 -4 -3 -7 -1
-7 5 0 7 -6 12 -14 12 -8 0 -17 7 -20 16 -3 8 -10 12 -16 9 -5 -3 -10 -1 -10
4 0 6 -6 11 -14 11 -8 0 -17 7 -20 16 -3 8 -10 12 -16 9 -5 -3 -10 -1 -10 4 0
6 -7 11 -15 11 -8 0 -15 5 -15 10 0 6 -7 10 -15 10 -8 0 -15 5 -15 10 0 6 -7
10 -15 10 -8 0 -15 5 -15 10 0 6 -6 10 -14 10 -8 0 -17 7 -20 16 -4 9 -9 14
-12 11 -4 -3 -15 3 -27 13 -11 11 -23 17 -27 15 -4 -2 -16 5 -28 15 -12 11
-25 20 -30 20 -5 0 -17 9 -27 20 -10 11 -22 17 -26 14 -5 -3 -9 0 -9 5 0 6 -7
11 -15 11 -8 0 -15 5 -15 10 0 6 -7 10 -15 10 -8 0 -15 5 -15 11 0 5 -4 7 -10
4 -5 -3 -10 -1 -10 4 0 6 -7 11 -15 11 -8 0 -15 5 -15 12 0 6 -3 9 -6 5 -3 -3
-15 3 -27 13 -11 11 -23 17 -27 15 -5 -3 -11 2 -14 11 -3 8 -10 12 -16 9 -5
-3 -10 -1 -10 6 0 7 -3 10 -6 6 -3 -3 -15 3 -27 13 -11 11 -24 17 -29 14 -4
-3 -8 0 -8 6 0 6 -4 9 -8 6 -5 -3 -19 4 -30 15 -12 11 -22 17 -22 14 0 -4 -7
1 -16 9 -8 9 -22 16 -30 16 -8 0 -14 5 -14 11 0 5 -4 7 -10 4 -5 -3 -10 -1
-10 5 0 6 -5 8 -10 5 -6 -3 -13 1 -16 9 -3 9 -15 16 -25 16 -10 0 -19 5 -19
11 0 5 -4 7 -10 4 -6 -3 -10 -2 -10 4 0 5 -16 15 -35 21 -19 6 -35 16 -35 21
0 6 -4 7 -10 4 -6 -3 -10 -1 -10 5 0 6 -4 8 -10 5 -5 -3 -10 -1 -10 5 0 6 -4
8 -10 5 -5 -3 -10 -2 -10 2 0 10 -90 58 -102 55 -5 -1 -8 3 -8 9 0 5 -4 7 -10
4 -5 -3 -10 -1 -10 5 0 6 -4 8 -10 5 -6 -3 -10 -1 -10 5 0 6 -4 8 -10 5 -5 -3
-10 -1 -10 5 0 6 -5 8 -10 5 -6 -3 -10 -1 -10 6 0 7 -3 10 -6 6 -4 -3 -13 1
-21 9 -8 8 -19 12 -24 9 -5 -4 -9 -3 -9 2 0 8 -111 64 -121 60 -3 -1 -13 6
-23 16 -10 9 -21 15 -26 12 -5 -3 -10 -1 -12 4 -1 5 -10 11 -18 13 -8 2 -21 9
-28 16 -8 7 -18 10 -23 7 -5 -4 -9 -1 -9 5 0 6 -4 8 -10 5 -6 -3 -10 -1 -10 5
0 6 -5 8 -10 5 -6 -3 -10 -1 -10 6 0 7 -3 10 -6 6 -3 -3 -30 8 -60 24 -30 17
-64 32 -77 35 -12 2 -23 8 -25 14 -2 6 -8 8 -13 4 -5 -3 -9 0 -9 5 0 6 -3 10
-7 9 -5 -1 -18 3 -29 10 -12 6 -24 8 -28 5 -3 -3 -6 -1 -6 5 0 7 -3 11 -7 10
-5 -1 -21 5 -38 12 -16 7 -33 13 -37 12 -5 -1 -8 3 -8 9 0 5 -4 7 -10 4 -5 -3
-10 -1 -10 4 0 6 -3 10 -7 9 -5 -1 -22 6 -40 15 -18 9 -39 17 -48 17 -16 0
-21 26 -5 32 5 2 11 12 13 23 2 11 8 30 15 41 6 12 8 24 5 28 -3 3 -1 6 5 6 7
0 15 18 18 40 4 22 11 43 15 46 5 3 9 16 9 30 0 13 5 24 10 24 6 0 10 13 10
29 0 16 4 31 10 33 5 2 12 20 14 42 3 21 11 45 17 52 7 8 9 17 6 21 -4 3 -2
12 4 20 6 7 8 13 4 13 -4 0 -3 6 3 13 6 7 12 25 14 39 2 15 7 30 11 34 4 4 7
19 7 34 0 15 3 30 7 34 4 3 8 12 9 19 2 7 6 23 9 37 3 14 7 30 8 35 2 6 5 15
8 20 3 6 6 23 7 39 1 16 6 34 12 41 5 6 10 27 11 46 2 19 6 39 9 44 4 6 8 17
8 25 2 27 10 75 17 100 4 14 9 36 10 50 2 14 6 41 10 60 5 31 18 134 30 255 9
78 5 562 -4 610 -5 28 -10 73 -10 100 -1 28 -3 64 -5 80 -6 45 -17 135 -22
180 -2 22 -5 46 -6 53 -1 6 -8 12 -15 12 -11 0 -13 12 -7 60 4 34 2 65 -3 72
-5 7 -10 28 -12 47 -1 19 -5 39 -10 45 -4 6 -8 26 -10 45 -1 19 -6 40 -11 46
-5 6 -11 26 -14 45 -7 49 -10 63 -19 78 -5 6 -6 16 -2 21 3 5 1 12 -4 16 -6 3
-8 12 -5 19 3 8 0 17 -5 21 -6 3 -9 10 -6 15 3 5 1 11 -4 15 -6 3 -8 12 -5 19
3 8 1 17 -5 21 -6 3 -11 17 -11 31 0 14 -7 38 -15 54 -8 16 -16 41 -17 55 -1
14 -6 25 -11 25 -4 0 -6 4 -2 9 3 5 1 12 -4 16 -6 3 -8 12 -4 20 3 8 0 15 -7
15 -6 0 -9 4 -5 9 3 5 1 12 -4 16 -6 3 -8 12 -4 20 3 8 0 15 -6 15 -6 0 -10 3
-10 8 1 4 1 9 -1 12 -1 3 -4 16 -6 30 -2 13 -10 28 -17 32 -6 4 -8 8 -3 8 5 0
3 7 -4 15 -7 8 -9 15 -6 15 4 0 1 10 -6 23 -7 12 -11 25 -10 30 1 4 -2 7 -6 7
-4 0 -8 10 -9 22 -1 11 -8 25 -15 29 -7 5 -9 9 -4 9 5 0 3 6 -3 13 -6 8 -8 17
-4 20 3 4 1 7 -6 7 -7 0 -9 5 -6 10 3 6 1 10 -4 10 -6 0 -11 11 -11 25 0 14
-5 25 -12 25 -6 0 -8 3 -5 7 4 3 -2 20 -13 38 -11 18 -17 35 -13 38 3 4 0 7
-7 7 -7 0 -11 3 -7 6 3 3 -3 21 -14 40 -10 19 -19 41 -19 49 0 8 -5 15 -11 15
-5 0 -7 5 -4 10 3 6 1 10 -6 10 -7 0 -9 3 -6 6 4 4 -7 31 -23 60 -16 30 -27
54 -24 54 3 0 -2 7 -10 16 -9 8 -14 20 -11 25 4 5 2 9 -2 9 -5 0 -17 20 -27
45 -11 25 -23 45 -28 45 -5 0 -7 4 -3 9 3 5 -2 17 -11 25 -8 9 -13 16 -9 16 3
0 -3 13 -14 28 -19 27 -51 39 -51 20 0 -4 -7 -8 -15 -8 -8 0 -15 -5 -15 -11 0
-5 -5 -7 -10 -4 -6 3 -13 -1 -16 -9 -3 -9 -12 -16 -20 -16 -8 0 -14 -5 -14
-11 0 -5 -5 -7 -10 -4 -6 3 -13 -1 -16 -9 -3 -9 -12 -16 -20 -16 -8 0 -14 -5
-14 -11 0 -5 -5 -7 -10 -4 -6 3 -13 -1 -16 -9 -3 -9 -10 -14 -14 -11 -4 2 -15
-4 -25 -15 -10 -11 -24 -20 -32 -20 -7 0 -13 -4 -13 -10 0 -5 -6 -10 -13 -10
-7 0 -23 -9 -35 -20 -12 -11 -25 -20 -30 -20 -4 0 -18 -9 -30 -20 -12 -12 -22
-18 -22 -14 0 4 -13 -5 -30 -21 -16 -16 -30 -25 -30 -21 0 5 -12 -3 -26 -17
-15 -15 -30 -25 -34 -22 -4 2 -15 -4 -25 -15 -10 -11 -22 -17 -26 -14 -5 3
-12 -2 -15 -10 -3 -9 -12 -16 -20 -16 -8 0 -14 -5 -14 -11 0 -5 -5 -7 -10 -4
-6 3 -13 -1 -16 -9 -3 -9 -12 -16 -20 -16 -8 0 -14 -4 -14 -10 0 -5 -7 -10
-15 -10 -8 0 -15 -4 -15 -10 0 -5 -7 -10 -15 -10 -8 0 -15 -5 -15 -11 0 -5 -4
-7 -10 -4 -6 3 -10 1 -10 -4 0 -6 -6 -11 -14 -11 -8 0 -17 -7 -20 -16 -3 -8
-10 -13 -15 -10 -5 3 -19 -5 -32 -18 -14 -14 -32 -21 -44 -19 -11 2 -26 5 -32
5 -7 1 -13 4 -13 8 0 3 -10 6 -22 7 -11 1 -25 8 -29 15 -5 7 -9 10 -9 5 0 -4
-11 0 -25 9 -14 9 -25 13 -25 9 0 -4 -7 -2 -15 5 -8 7 -15 10 -15 6 0 -4 -11
1 -25 10 -14 9 -25 13 -25 9 0 -4 -7 -2 -15 5 -8 7 -15 9 -15 5 0 -4 -7 -2
-15 5 -8 7 -15 9 -15 5 0 -4 -7 -2 -15 5 -8 7 -15 9 -15 4 0 -5 -4 -4 -8 3 -4
6 -21 13 -39 16 -17 3 -37 8 -42 12 -6 3 -30 8 -53 11 -24 3 -47 9 -52 15 -6
5 -25 9 -44 9 -18 0 -42 5 -53 10 -10 6 -36 11 -56 12 -21 0 -42 4 -48 8 -5 4
-17 8 -25 8 -40 1 -126 15 -147 23 -14 5 -45 9 -71 9 -26 0 -65 5 -87 10 -80
18 -727 18 -813 -1 -23 -5 -61 -10 -85 -11 -23 0 -53 -5 -67 -10 -14 -5 -52
-12 -85 -15 -33 -3 -65 -9 -70 -13 -6 -5 -29 -10 -50 -11 -22 -1 -45 -6 -50
-10 -6 -5 -29 -9 -50 -10 -22 -1 -47 -6 -55 -10 -8 -4 -40 -10 -70 -13 -29 -3
-57 -12 -62 -19 -4 -6 -8 -8 -8 -3 0 5 -6 4 -12 -2 -7 -6 -16 -11 -20 -11 -5
-1 -9 -1 -10 -2 -2 0 -14 -3 -28 -5 -13 -3 -29 -9 -34 -14 -6 -6 -19 -10 -31
-10 -12 0 -26 -5 -33 -12 -7 -7 -12 -8 -12 -4 0 5 -7 3 -15 -4 -8 -7 -15 -9
-15 -5 0 4 -7 2 -15 -5 -8 -7 -15 -9 -15 -5 0 4 -7 2 -15 -5 -8 -7 -15 -9 -15
-5 0 4 -7 2 -15 -5 -8 -7 -15 -9 -15 -5 0 4 -7 1 -16 -6 -14 -11 -18 -11 -29
4 -6 9 -15 14 -18 10 -4 -3 -7 -1 -7 5 0 7 -6 12 -14 12 -8 0 -17 7 -20 16 -3
8 -10 12 -16 9 -5 -3 -10 -1 -10 4 0 6 -6 11 -14 11 -8 0 -17 7 -20 16 -3 8
-10 12 -16 9 -5 -3 -10 -1 -10 4 0 6 -7 11 -15 11 -8 0 -15 5 -15 10 0 6 -6
10 -14 10 -8 0 -16 3 -18 8 -2 4 -16 18 -32 32 -16 14 -26 18 -21 10 4 -8 -6
-2 -23 14 -18 17 -32 26 -32 22 0 -5 -12 3 -26 18 -15 14 -33 26 -40 26 -8 0
-14 5 -14 10 0 6 -6 10 -13 10 -8 0 -24 11 -37 25 -12 13 -26 22 -30 20 -4 -3
-15 4 -25 15 -10 11 -24 20 -30 20 -7 0 -16 7 -19 16 -3 8 -10 13 -14 10 -5
-3 -19 6 -32 19 -13 13 -27 22 -32 19 -4 -3 -11 2 -14 10 -3 9 -12 16 -20 16
-8 0 -14 5 -14 10 0 6 -7 10 -15 10 -8 0 -15 5 -15 10 0 6 -7 10 -15 10 -8 0
-15 5 -15 10 0 6 -6 10 -14 10 -8 0 -17 7 -20 16 -3 8 -10 13 -15 10 -5 -4
-11 -2 -13 3 -1 4 -12 11 -23 14 -15 5 -37 -11 -96 -68z m186 -465 c10 -11 23
-20 30 -20 6 0 22 -11 35 -25 12 -13 26 -22 30 -20 5 3 11 -2 14 -11 3 -8 10
-13 15 -10 5 3 20 -6 35 -21 14 -14 26 -22 26 -17 0 4 13 -4 28 -19 16 -15 31
-24 35 -21 4 4 9 -1 13 -10 3 -9 12 -16 20 -16 8 0 14 -4 14 -10 0 -5 6 -10
14 -10 8 0 17 -7 20 -16 3 -8 10 -12 16 -9 5 3 10 1 10 -4 0 -6 6 -11 14 -11
8 0 17 -7 20 -16 3 -8 10 -12 16 -9 5 3 10 1 10 -4 0 -6 6 -11 14 -11 8 0 17
-7 20 -16 4 -9 9 -14 13 -10 4 3 22 -8 40 -26 22 -21 32 -26 27 -14 -6 16 -3
18 35 13 23 -2 44 -1 47 4 3 5 18 9 33 9 15 0 32 5 39 12 7 7 12 9 12 5 0 -3
21 1 48 9 26 9 63 18 82 20 19 3 39 9 45 13 10 9 45 16 145 29 30 4 60 11 66
14 6 4 44 10 85 14 41 3 79 10 85 15 6 5 33 9 60 10 27 1 56 5 64 9 8 5 42 11
75 14 33 3 76 8 95 11 19 3 60 7 90 9 30 3 96 8 145 13 119 11 505 10 625 -1
52 -5 115 -10 140 -12 25 -1 65 -6 90 -9 25 -4 56 -8 70 -10 14 -2 41 -7 60
-10 19 -3 55 -8 80 -11 25 -3 52 -8 60 -11 18 -8 31 -10 88 -17 24 -3 48 -8
54 -12 6 -4 27 -9 46 -11 19 -2 43 -8 53 -13 10 -6 29 -10 43 -10 14 0 28 -5
31 -10 4 -6 10 -8 15 -5 5 3 11 1 15 -5 4 -6 10 -8 15 -5 5 3 11 1 15 -5 4 -6
10 -8 15 -5 5 3 11 1 15 -5 3 -5 17 -10 31 -10 13 0 24 -4 24 -10 0 -5 10 -10
23 -10 13 0 27 -3 31 -7 4 -5 11 -8 14 -8 4 -1 17 -6 28 -13 12 -6 24 -8 28
-5 3 3 6 1 6 -6 0 -7 4 -10 9 -6 5 3 12 1 16 -5 4 -6 11 -8 16 -5 5 4 9 2 9
-3 0 -9 28 -20 72 -28 9 -2 19 3 22 12 3 8 10 12 16 9 5 -3 10 -1 10 5 0 6 5
8 10 5 6 -3 10 -2 10 3 0 6 10 12 23 16 13 3 34 14 46 26 13 11 27 17 31 15 4
-3 11 2 14 11 3 8 10 12 16 9 5 -3 10 -1 10 5 0 6 4 8 10 5 6 -3 10 -1 10 4 0
6 6 11 14 11 8 0 22 7 30 16 9 8 16 13 16 9 0 -4 7 1 16 9 8 9 20 14 25 10 5
-3 12 2 15 10 3 9 10 14 14 11 5 -3 15 1 22 9 8 7 24 17 36 20 12 4 22 12 22
17 0 6 4 8 9 5 5 -4 11 -2 13 3 1 5 10 11 18 13 8 2 29 13 47 26 17 12 36 22
41 22 5 0 15 7 22 15 7 8 16 12 21 9 5 -3 9 0 9 6 0 6 5 8 10 5 6 -3 10 -1 10
6 0 7 3 9 7 6 3 -4 21 4 39 18 32 24 81 35 69 15 -3 -5 -1 -10 4 -10 6 0 11
-8 11 -18 0 -10 3 -22 7 -26 4 -3 8 -16 10 -28 2 -12 9 -26 16 -30 6 -4 8 -8
2 -8 -5 0 -4 -5 3 -12 7 -7 12 -20 12 -30 0 -10 5 -18 12 -18 6 0 8 -3 5 -7
-4 -3 -2 -12 4 -20 6 -7 8 -13 5 -13 -4 0 -1 -10 6 -22 7 -13 13 -25 14 -28 0
-3 4 -13 7 -22 4 -10 10 -26 14 -35 3 -10 7 -21 7 -25 1 -3 4 -10 9 -14 4 -4
7 -18 7 -31 0 -13 5 -23 10 -23 6 0 10 -11 10 -24 0 -14 5 -28 10 -31 6 -3 10
-16 10 -29 0 -12 3 -26 8 -30 4 -4 8 -12 8 -17 1 -5 3 -11 4 -14 1 -3 4 -9 5
-15 1 -5 4 -12 5 -15 1 -3 4 -9 5 -15 1 -5 3 -11 5 -12 1 -2 4 -16 6 -33 3
-16 10 -33 16 -36 6 -4 8 -11 4 -17 -3 -6 -2 -13 4 -17 6 -4 8 -11 4 -16 -3
-5 0 -16 6 -24 7 -8 9 -15 5 -15 -4 0 -2 -6 4 -13 6 -8 8 -16 6 -19 -3 -3 0
-18 6 -34 6 -16 13 -45 16 -64 2 -19 8 -39 13 -45 5 -6 10 -27 11 -46 2 -19 6
-38 9 -44 4 -5 8 -17 8 -25 1 -19 9 -58 17 -90 4 -14 9 -36 11 -50 2 -14 6
-36 8 -50 3 -14 8 -41 11 -60 4 -19 8 -46 11 -60 40 -228 68 -888 44 -1050 -5
-36 -10 -94 -11 -130 -1 -36 -6 -78 -10 -94 -5 -15 -9 -49 -10 -75 -1 -25 -6
-53 -10 -61 -4 -9 -10 -36 -13 -60 -8 -71 -25 -153 -36 -180 -5 -14 -11 -34
-13 -45 -2 -11 -7 -27 -10 -35 -4 -8 -8 -25 -10 -37 -2 -12 -6 -26 -10 -29 -4
-4 -7 -15 -7 -25 0 -9 -7 -29 -14 -45 -8 -15 -13 -31 -10 -36 3 -4 0 -8 -7 -8
-7 0 -9 -3 -6 -7 4 -3 2 -12 -4 -20 -6 -7 -8 -13 -4 -13 3 0 -3 -15 -14 -33
-11 -19 -18 -37 -14 -40 3 -4 1 -7 -5 -7 -7 0 -12 -5 -12 -12 0 -16 -63 -142
-73 -146 -4 -2 -5 -8 -1 -13 3 -5 1 -9 -4 -9 -6 0 -15 -12 -22 -27 -20 -48
-34 -73 -43 -73 -4 0 -6 -4 -3 -9 3 -5 -6 -20 -21 -35 -14 -14 -22 -26 -17
-26 4 0 -4 -13 -19 -28 -15 -16 -25 -31 -22 -33 3 -3 -6 -16 -20 -29 -14 -13
-25 -29 -25 -36 0 -7 -9 -18 -20 -24 -11 -6 -18 -15 -15 -21 4 -5 -1 -12 -9
-15 -9 -3 -16 -12 -16 -18 0 -7 -14 -22 -30 -35 -17 -12 -28 -26 -25 -31 7
-11 -254 -272 -265 -265 -5 3 -19 -8 -31 -25 -13 -16 -29 -30 -36 -30 -8 0
-16 -7 -19 -15 -4 -8 -10 -13 -15 -10 -4 3 -13 -4 -19 -16 -7 -11 -14 -18 -18
-15 -3 4 -18 -6 -34 -21 -15 -15 -28 -23 -28 -19 0 5 -12 -3 -26 -17 -15 -15
-30 -25 -34 -22 -4 2 -16 -4 -27 -15 -12 -10 -24 -16 -27 -13 -3 4 -6 1 -6 -5
0 -7 -6 -12 -14 -12 -7 0 -19 -7 -26 -15 -7 -8 -21 -15 -31 -15 -11 0 -19 -4
-19 -10 0 -5 -6 -10 -14 -10 -7 0 -19 -7 -26 -15 -7 -8 -16 -12 -21 -9 -5 3
-9 0 -9 -6 0 -6 -4 -8 -10 -5 -6 3 -10 1 -10 -5 0 -6 -4 -8 -10 -5 -6 3 -10 1
-10 -5 0 -6 -4 -8 -10 -5 -5 3 -10 1 -10 -4 0 -6 -8 -11 -18 -11 -10 0 -23 -5
-28 -10 -6 -6 -24 -13 -40 -16 -16 -3 -32 -11 -36 -17 -4 -7 -8 -8 -8 -3 0 4
-11 1 -25 -8 -14 -9 -25 -14 -25 -10 0 4 -7 1 -15 -6 -8 -7 -15 -9 -15 -6 0 4
-10 1 -22 -6 -13 -7 -34 -14 -48 -16 -13 -2 -28 -8 -31 -14 -4 -6 -11 -8 -17
-4 -6 3 -13 2 -17 -4 -4 -6 -11 -8 -16 -4 -5 3 -15 1 -22 -4 -7 -6 -24 -12
-37 -14 -14 -2 -31 -7 -38 -12 -7 -4 -16 -6 -18 -3 -3 2 -22 1 -42 -4 -20 -6
-48 -12 -62 -14 -14 -3 -41 -8 -60 -12 -19 -4 -39 -8 -45 -8 -5 -1 -17 -4 -25
-8 -8 -3 -22 -5 -30 -5 -8 -1 -33 -3 -55 -7 -22 -3 -62 -8 -90 -10 -27 -3 -68
-9 -90 -14 -99 -21 -567 -21 -660 0 -22 5 -62 11 -90 14 -103 10 -150 16 -165
22 -20 9 -35 12 -98 19 -29 4 -55 11 -58 15 -3 5 -23 9 -44 9 -21 0 -42 5 -45
10 -3 6 -22 10 -41 10 -19 0 -34 5 -34 11 0 6 -6 9 -14 6 -7 -3 -19 0 -25 6
-6 6 -11 8 -11 5 0 -4 -15 -1 -34 7 -18 8 -36 11 -40 8 -3 -4 -6 -1 -6 5 0 7
-3 11 -7 11 -5 -1 -10 -1 -13 1 -3 1 -16 4 -30 6 -13 2 -28 10 -32 17 -4 6 -8
8 -8 4 0 -4 -10 -2 -22 5 -13 7 -26 11 -30 10 -5 -1 -8 3 -8 10 0 6 -3 8 -7 5
-3 -4 -21 3 -40 14 -18 11 -33 18 -33 14 0 -3 -7 1 -16 9 -8 9 -21 16 -28 16
-8 0 -19 7 -26 15 -7 8 -16 12 -21 9 -5 -3 -9 0 -9 6 0 6 -4 9 -9 6 -5 -3 -14
1 -21 9 -7 8 -16 15 -21 15 -5 0 -17 7 -26 15 -10 8 -21 14 -25 13 -3 -2 -18
8 -32 21 -14 14 -26 21 -26 16 0 -4 -12 4 -26 19 -15 14 -32 26 -39 26 -7 0
-15 7 -19 15 -3 8 -9 14 -13 13 -9 -3 -29 12 -64 47 -11 11 -24 20 -29 20 -5
0 -54 44 -110 98 -55 54 -95 95 -88 91 7 -4 -6 10 -30 30 -23 21 -40 42 -36
47 3 5 0 8 -7 7 -7 -2 -13 2 -14 8 0 6 -16 27 -35 48 -19 20 -35 41 -35 47 0
6 -8 16 -17 23 -10 7 -18 18 -18 23 0 6 -12 22 -26 37 -15 14 -23 26 -18 26 4
0 -5 14 -21 30 -16 17 -25 30 -20 30 5 0 -2 12 -16 26 -13 14 -23 29 -21 32 1
4 -4 14 -12 24 -8 9 -12 19 -9 22 4 3 1 6 -5 6 -7 0 -12 7 -12 15 0 8 -5 15
-11 15 -5 0 -7 5 -4 10 3 6 1 10 -5 10 -6 0 -9 4 -6 9 4 5 3 11 -1 13 -10 4
-97 180 -95 191 1 4 -3 7 -9 7 -5 0 -8 4 -4 9 3 5 1 12 -5 16 -6 4 -8 11 -5
16 4 5 2 9 -2 9 -5 0 -9 10 -10 22 -1 11 -7 24 -12 28 -6 3 -12 15 -14 25 -1
11 -5 25 -8 30 -4 6 -10 28 -14 50 -4 22 -11 43 -17 46 -5 3 -10 20 -10 38 -1
17 -5 34 -10 37 -4 3 -8 18 -8 34 0 16 -4 31 -8 34 -5 3 -9 21 -10 41 -1 20
-4 40 -7 45 -8 13 -15 46 -20 92 -3 21 -7 50 -11 65 -3 16 -8 51 -10 78 -2 28
-7 59 -10 70 -5 19 -14 137 -30 418 -6 113 -3 190 21 547 6 81 22 225 29 265
3 17 8 51 10 77 3 26 8 52 11 58 7 11 21 90 31 170 3 25 10 49 15 55 5 5 9 21
9 36 0 15 5 40 11 56 6 15 13 46 15 68 3 22 9 44 13 50 4 5 8 23 9 40 1 16 7
34 12 39 6 6 10 22 10 36 0 15 3 30 7 34 4 3 8 13 10 21 5 27 11 50 13 53 2 1
3 6 4 11 0 5 4 13 9 17 4 4 7 17 7 29 0 11 4 25 10 31 5 5 11 21 14 34 2 14 5
26 7 28 1 1 2 5 3 10 1 4 7 17 14 30 7 12 10 22 6 22 -3 0 -1 7 6 15 7 8 10
15 6 15 -4 0 1 11 10 25 9 14 13 25 9 25 -4 0 -2 6 4 13 6 8 8 17 4 20 -3 4
-1 7 5 7 7 0 12 9 12 19 0 11 5 23 10 26 6 4 8 11 5 16 -4 5 -1 9 6 9 7 0 9 3
6 7 -4 3 -2 12 3 19 6 6 13 23 15 35 3 13 9 25 15 27 5 2 10 15 10 28 0 13 5
24 11 24 5 0 7 5 4 10 -3 6 -1 10 5 10 6 0 8 5 5 10 -3 6 -1 10 5 10 6 0 8 5
5 10 -3 6 -1 10 5 10 6 0 8 5 5 10 -3 6 -1 10 5 10 6 0 8 5 5 10 -3 6 -1 10 5
10 6 0 8 5 5 10 -11 18 11 10 30 -10z m-235 -4053 c0 -7 11 -24 25 -39 14 -15
25 -31 25 -36 0 -4 13 -21 30 -37 16 -15 28 -31 27 -35 -1 -4 9 -19 23 -32 31
-30 60 -66 60 -74 0 -7 308 -314 315 -314 6 0 41 -30 82 -70 14 -14 29 -25 33
-25 4 0 23 -13 42 -30 18 -16 36 -29 40 -28 4 2 12 -6 18 -17 6 -11 15 -18 19
-15 5 3 12 -2 15 -11 3 -8 10 -13 14 -10 5 3 16 -4 25 -15 9 -10 24 -19 32
-19 8 0 15 -4 15 -8 0 -5 18 -17 40 -28 22 -10 40 -23 40 -27 0 -5 5 -5 10 -2
6 3 10 2 10 -3 0 -9 50 -37 63 -34 4 1 7 -3 7 -9 0 -5 4 -8 9 -5 5 4 11 2 13
-3 1 -5 10 -11 18 -13 8 -2 18 -7 21 -11 3 -5 13 -9 21 -11 9 -1 22 -7 30 -13
7 -6 20 -13 28 -15 8 -2 21 -9 28 -16 8 -7 18 -10 23 -7 5 4 9 1 9 -4 0 -6 3
-10 8 -9 4 1 22 -6 40 -15 17 -10 32 -15 32 -12 0 4 12 -1 28 -9 45 -24 65
-30 105 -27 29 2 37 -2 37 -15 0 -12 -6 -15 -26 -10 -17 5 -23 3 -19 -4 4 -6
21 -9 38 -7 18 2 46 -2 62 -9 31 -12 74 -22 135 -31 19 -2 42 -7 50 -10 18 -8
36 -11 70 -14 14 -1 54 -9 90 -17 118 -26 721 -24 855 4 35 7 90 14 123 15 12
1 25 5 28 10 3 5 21 9 40 9 20 0 43 4 52 9 17 9 72 22 105 24 9 1 17 5 17 10
0 5 6 7 14 4 7 -3 25 1 40 8 14 8 26 12 26 9 0 -3 6 -2 13 3 6 4 15 8 20 9 4
1 8 2 10 3 1 2 13 5 27 7 13 2 27 9 31 15 3 6 9 10 13 9 15 -4 66 12 66 21 0
6 5 7 10 4 6 -3 10 -1 10 4 0 6 3 10 8 9 15 -3 62 15 62 24 0 5 5 6 10 3 6 -3
10 -1 10 5 0 6 4 9 9 5 5 -3 12 -1 16 5 4 6 11 8 16 5 5 -4 9 -1 9 5 0 6 4 8
10 5 6 -3 10 -1 10 5 0 6 5 8 10 5 6 -3 10 -1 10 4 0 6 9 11 20 11 11 0 20 5
20 12 0 6 3 9 6 5 7 -6 125 50 134 63 3 5 12 10 20 12 8 2 21 9 28 16 8 7 18
10 23 6 5 -3 12 2 15 10 3 9 10 13 15 10 5 -3 9 0 9 5 0 6 6 11 13 11 8 0 24
9 37 20 13 11 29 20 37 20 7 0 13 5 13 10 0 6 7 10 15 10 8 0 15 5 15 11 0 5
4 8 9 5 5 -4 15 7 22 23 10 21 22 30 46 34 18 3 45 17 60 31 14 14 30 23 34
20 5 -2 13 5 19 16 6 11 17 20 25 20 7 0 26 14 42 30 15 17 33 30 38 30 6 0
33 23 60 50 27 28 53 50 58 50 12 0 71 50 60 50 -4 0 -2 4 5 9 7 4 68 62 134
127 66 65 116 110 110 98 -6 -11 -18 -26 -26 -33 -9 -8 -14 -17 -11 -21 3 -4
-2 -11 -11 -14 -8 -3 -13 -10 -10 -15 3 -4 -3 -19 -14 -31 -11 -13 -20 -29
-20 -37 0 -7 -5 -13 -11 -13 -5 0 -7 -5 -4 -10 3 -6 -1 -13 -9 -16 -9 -3 -14
-10 -11 -14 3 -5 0 -14 -7 -22 -7 -7 -14 -20 -16 -28 -2 -8 -7 -17 -12 -20
-13 -9 -139 -267 -133 -274 4 -3 1 -6 -6 -6 -7 0 -10 -4 -6 -9 3 -5 -1 -16 -9
-24 -8 -8 -12 -17 -9 -21 4 -3 1 -6 -5 -6 -6 0 -9 -7 -6 -15 4 -8 1 -15 -6
-15 -6 0 -8 -4 -5 -10 3 -5 1 -10 -4 -10 -6 0 -10 -3 -9 -7 1 -5 -3 -18 -10
-30 -7 -13 -10 -23 -7 -23 3 0 -1 -12 -9 -27 -13 -25 -26 -55 -31 -75 -2 -5
-3 -9 -5 -10 -1 -2 -3 -11 -5 -22 -2 -10 -8 -23 -14 -29 -6 -6 -11 -24 -11
-39 0 -15 -4 -28 -10 -28 -5 0 -10 -13 -10 -30 0 -16 -5 -30 -11 -30 -6 0 -9
-6 -6 -14 3 -8 3 -17 -1 -20 -3 -4 -7 -13 -9 -21 -5 -23 -9 -38 -16 -55 -4 -8
-8 -25 -10 -37 -2 -12 -6 -26 -10 -29 -4 -4 -7 -21 -7 -39 0 -17 -4 -35 -10
-41 -5 -5 -11 -23 -12 -39 -1 -17 -4 -34 -7 -40 -3 -5 -6 -16 -8 -25 -1 -8 -7
-40 -13 -70 -17 -86 -30 -170 -36 -230 -2 -30 -9 -68 -13 -85 -5 -16 -9 -46
-10 -65 -2 -19 -4 -57 -6 -85 -10 -130 -13 -546 -5 -595 5 -30 11 -80 15 -110
3 -30 8 -66 10 -80 2 -14 6 -36 9 -50 2 -14 9 -39 14 -57 6 -17 8 -33 6 -36
-2 -2 2 -20 10 -39 9 -20 12 -38 9 -41 -3 -4 -1 -13 5 -20 7 -8 9 -17 5 -21
-4 -4 -2 -10 4 -14 6 -4 14 -21 17 -37 2 -17 5 -31 6 -32 2 -2 3 -7 4 -12 0
-5 4 -12 8 -16 4 -4 4 -13 1 -21 -3 -8 0 -14 6 -14 6 0 10 -3 10 -7 -1 -5 -1
-10 1 -13 1 -3 4 -16 6 -30 2 -13 9 -27 16 -31 6 -4 7 -12 4 -18 -4 -6 -2 -11
4 -11 6 0 9 -4 5 -9 -3 -5 -1 -12 5 -16 6 -4 8 -11 5 -16 -4 -5 -1 -9 4 -9 6
0 10 -3 9 -7 -1 -5 3 -17 9 -28 6 -11 12 -24 12 -30 5 -32 14 -55 23 -55 5 0
6 -4 3 -10 -3 -5 -1 -10 5 -10 6 0 8 -4 5 -10 -3 -5 -1 -10 5 -10 6 0 8 -4 5
-10 -3 -5 -1 -10 5 -10 6 0 8 -4 5 -10 -3 -5 -1 -10 5 -10 6 0 8 -4 5 -10 -3
-5 -1 -10 5 -10 6 0 8 -4 5 -10 -3 -5 -1 -10 4 -10 6 0 10 -3 9 -7 -3 -10 21
-53 39 -71 7 -8 11 -17 8 -22 -3 -4 2 -11 11 -14 8 -3 13 -10 10 -14 -3 -5 3
-18 14 -29 10 -12 16 -24 13 -27 -4 -3 -1 -6 5 -6 7 0 12 -7 12 -15 0 -8 5
-15 10 -15 6 0 10 -7 10 -15 0 -8 5 -15 10 -15 6 0 10 -6 10 -14 0 -8 11 -24
25 -37 13 -13 25 -30 25 -36 0 -7 5 -13 11 -13 5 0 8 -4 4 -9 -3 -6 4 -15 15
-21 11 -6 18 -15 15 -20 -3 -5 3 -13 12 -19 10 -6 14 -11 9 -11 -5 0 3 -9 18
-21 14 -11 24 -25 21 -29 -3 -5 3 -15 15 -22 11 -7 20 -17 20 -22 0 -5 8 -15
18 -22 9 -7 17 -17 17 -22 0 -6 11 -21 25 -34 31 -30 65 -72 62 -76 -2 -2 15
-19 38 -39 22 -20 40 -41 40 -46 0 -5 14 -25 30 -44 17 -18 30 -32 30 -29 0 2
30 -28 68 -66 37 -39 66 -74 64 -79 -1 -5 2 -8 7 -7 5 2 8 0 7 -4 -2 -12 286
-297 298 -295 6 1 10 -4 8 -11 -1 -6 4 -11 10 -10 7 2 12 -3 10 -10 -1 -6 4
-11 10 -10 7 2 11 -4 10 -12 -2 -8 0 -11 4 -7 4 4 47 -31 95 -79 47 -47 97
-91 110 -98 13 -7 23 -18 21 -25 -1 -7 1 -10 6 -7 5 3 25 -13 45 -35 20 -22
37 -37 37 -35 0 7 63 -49 103 -91 17 -18 36 -33 42 -33 6 0 36 -25 67 -55 31
-30 60 -55 65 -55 5 0 31 -22 58 -50 27 -27 54 -50 60 -50 6 0 23 -14 38 -31
15 -17 27 -28 27 -25 0 6 24 -13 66 -54 15 -14 30 -24 35 -23 5 2 13 -6 19
-17 6 -11 17 -20 24 -20 8 0 21 -11 30 -25 9 -14 20 -23 25 -21 4 3 25 -13 46
-34 22 -22 45 -40 51 -40 7 0 22 -12 33 -26 12 -15 21 -23 21 -18 0 5 5 1 11
-8 5 -10 16 -18 24 -18 7 0 23 -12 34 -26 12 -15 21 -23 21 -18 0 5 5 1 11 -8
5 -10 16 -18 24 -18 8 0 19 -9 25 -20 6 -11 16 -20 23 -20 7 0 28 -16 47 -35
18 -19 36 -33 39 -31 3 2 22 -11 41 -30 19 -19 40 -34 46 -34 7 0 20 -10 28
-22 9 -12 16 -18 16 -13 0 6 5 2 11 -7 5 -10 15 -18 22 -18 7 0 18 -9 25 -20
7 -12 17 -18 21 -15 5 2 11 -2 15 -10 3 -8 12 -15 20 -15 7 0 16 -7 20 -15 3
-8 11 -15 18 -15 7 0 27 -12 43 -27 16 -16 32 -27 36 -26 3 1 19 -11 34 -27
16 -17 34 -30 41 -30 7 0 17 -6 21 -13 4 -8 22 -22 38 -33 17 -10 34 -24 38
-31 4 -7 15 -13 22 -13 8 0 15 -4 15 -10 0 -5 6 -10 14 -10 8 0 16 -7 20 -15
3 -8 9 -14 13 -13 5 2 22 -9 38 -24 16 -16 35 -28 41 -28 7 0 15 -7 18 -16 3
-8 10 -13 15 -10 5 3 11 -1 15 -9 3 -8 12 -15 21 -15 8 0 15 -4 15 -10 0 -5
15 -16 34 -25 19 -9 37 -23 40 -31 3 -9 10 -12 16 -9 6 3 13 -1 16 -9 3 -9 12
-16 19 -16 7 0 16 -7 19 -16 3 -8 10 -13 14 -10 5 3 20 -6 32 -19 13 -14 27
-25 32 -25 5 0 21 -11 36 -25 15 -14 32 -25 38 -25 7 0 15 -7 18 -16 3 -8 10
-13 14 -10 5 3 20 -6 32 -19 13 -14 29 -25 37 -25 7 0 13 -4 13 -10 0 -5 7
-10 15 -10 8 0 15 -4 15 -10 0 -5 6 -10 13 -10 8 0 24 -11 37 -25 13 -14 29
-25 36 -25 6 0 15 -7 18 -16 3 -8 10 -13 14 -10 5 3 20 -5 33 -17 13 -12 27
-21 32 -19 4 1 10 -5 13 -13 4 -8 12 -15 20 -15 8 0 14 -4 14 -10 0 -5 6 -10
14 -10 8 0 17 -7 20 -16 3 -8 10 -13 15 -10 5 3 12 -1 15 -9 3 -8 9 -14 13
-13 5 2 19 -7 33 -19 13 -13 30 -23 37 -23 7 0 13 -4 13 -10 0 -5 6 -10 13
-10 8 0 24 -11 37 -25 12 -13 26 -22 30 -20 4 2 17 -7 30 -20 13 -13 26 -22
30 -20 5 3 11 -2 14 -11 3 -8 10 -12 16 -9 5 3 10 1 10 -4 0 -6 6 -11 14 -11
8 0 17 -7 20 -16 3 -8 10 -13 14 -10 5 3 19 -6 32 -19 13 -13 27 -22 32 -19 4
3 11 -2 14 -10 3 -9 12 -16 20 -16 8 0 14 -4 14 -10 0 -5 6 -10 14 -10 8 0 17
-7 20 -16 3 -8 10 -12 16 -9 5 3 10 1 10 -4 0 -6 6 -11 14 -11 8 0 17 -7 20
-16 3 -8 10 -12 16 -9 5 3 10 1 10 -4 0 -6 7 -11 15 -11 8 0 15 -4 15 -10 0
-5 7 -10 15 -10 8 0 15 -4 15 -10 0 -5 7 -10 15 -10 8 0 15 -4 15 -10 0 -5 6
-10 14 -10 8 0 17 -7 20 -16 3 -8 10 -12 16 -9 5 3 10 1 10 -4 0 -6 7 -11 15
-11 8 0 15 -5 15 -11 0 -5 5 -7 10 -4 6 3 10 1 10 -4 0 -6 7 -11 16 -11 8 0
12 -4 9 -10 -3 -5 -1 -11 4 -11 6 -1 15 -2 21 -3 5 0 17 -8 27 -16 10 -9 22
-16 26 -17 5 0 21 -13 36 -27 15 -15 30 -23 34 -20 4 4 9 -1 13 -10 3 -9 10
-13 15 -10 5 3 9 0 9 -5 0 -6 5 -11 10 -11 6 0 20 -9 32 -20 12 -11 28 -20 35
-20 7 0 13 -4 13 -10 0 -5 6 -10 13 -10 8 0 22 -9 32 -20 10 -11 21 -17 25
-15 4 2 15 -4 25 -15 10 -11 24 -20 30 -20 7 0 16 -7 19 -16 3 -8 10 -12 16
-9 5 3 10 1 10 -4 0 -6 6 -11 14 -11 8 0 17 -7 20 -16 4 -9 9 -14 12 -11 4 3
15 -3 27 -13 11 -11 23 -17 27 -15 4 2 17 -7 30 -20 13 -13 26 -22 30 -20 4 3
15 -4 25 -15 10 -11 22 -20 27 -20 5 0 18 -9 30 -20 12 -11 28 -20 35 -20 7 0
13 -5 13 -11 0 -5 5 -7 10 -4 6 3 10 1 10 -4 0 -6 7 -11 15 -11 8 0 15 -4 15
-10 0 -5 4 -10 10 -10 5 0 18 -7 27 -15 10 -8 22 -15 26 -14 5 0 22 -12 38
-27 16 -15 29 -24 29 -20 0 4 10 -2 22 -14 12 -11 28 -20 35 -20 7 0 13 -4 13
-10 0 -5 11 -12 25 -16 14 -3 25 -10 25 -15 0 -5 4 -9 10 -9 5 0 19 -8 30 -18
11 -9 24 -17 29 -17 4 0 15 -8 25 -17 10 -10 24 -18 32 -18 8 0 14 -4 14 -10
0 -5 8 -10 17 -10 9 0 13 -3 10 -7 -4 -3 3 -21 14 -40 11 -18 17 -33 14 -33
-4 0 0 -11 9 -25 9 -14 14 -25 10 -25 -3 0 4 -16 16 -35 12 -19 19 -35 15 -35
-3 0 0 -10 7 -22 7 -13 13 -26 14 -30 1 -5 3 -11 4 -15 1 -5 2 -11 1 -15 0 -5
4 -8 10 -8 5 0 8 -4 4 -9 -3 -5 -1 -12 5 -16 6 -4 8 -11 5 -16 -4 -5 -1 -9 4
-9 6 0 11 -9 11 -20 0 -12 7 -32 16 -45 9 -14 13 -25 9 -25 -4 0 -2 -6 4 -13
6 -8 8 -17 4 -20 -3 -4 -1 -7 5 -7 6 0 9 -7 6 -15 -4 -8 -1 -15 6 -15 6 0 9
-4 5 -9 -3 -5 -1 -12 5 -16 6 -4 8 -11 5 -16 -4 -5 -1 -9 5 -9 6 0 9 -4 5 -9
-3 -5 -1 -12 5 -16 5 -3 10 -17 10 -31 0 -13 5 -24 10 -24 6 0 10 -10 10 -23
0 -13 5 -28 12 -35 7 -7 9 -12 6 -12 -4 0 -1 -12 7 -27 8 -15 12 -30 9 -35 -3
-4 0 -8 6 -8 6 0 9 -4 5 -9 -3 -5 -1 -12 4 -16 6 -3 8 -12 4 -20 -3 -8 0 -15
7 -15 6 0 9 -4 5 -9 -3 -5 -1 -12 5 -16 6 -4 8 -11 4 -16 -3 -5 -1 -16 5 -23
6 -7 13 -26 16 -42 14 -87 14 -95 5 -89 -6 3 -10 1 -10 -5 0 -6 -4 -8 -10 -5
-5 3 -10 1 -10 -4 0 -6 -11 -11 -24 -11 -14 0 -28 -4 -31 -10 -3 -5 -16 -10
-29 -10 -12 0 -26 -4 -31 -9 -6 -6 -23 -13 -40 -16 -42 -8 -60 -13 -60 -15 0
-1 -13 -4 -30 -6 -16 -2 -39 -8 -50 -13 -19 -9 -48 -15 -140 -26 -22 -3 -58
-8 -80 -11 -22 -3 -56 -8 -75 -11 -19 -2 -37 -7 -40 -12 -5 -8 -389 3 -430 13
-14 4 -43 9 -65 11 -22 3 -51 7 -65 10 -14 2 -43 7 -65 10 -21 3 -45 11 -52
16 -6 6 -17 8 -22 5 -5 -4 -12 -2 -16 4 -4 6 -11 8 -16 4 -5 -3 -15 -1 -22 4
-7 6 -29 13 -51 16 -21 4 -43 10 -50 13 -6 4 -13 8 -16 8 -3 1 -33 15 -67 33
-35 18 -66 32 -70 33 -5 0 -12 7 -16 15 -5 8 -12 12 -18 9 -5 -4 -9 -1 -9 4 0
6 -7 11 -15 11 -8 0 -15 5 -15 10 0 6 -8 14 -17 17 -22 8 -37 21 -65 51 -12
12 -26 22 -32 22 -14 0 -296 282 -291 290 3 4 -10 21 -28 37 -40 37 -77 81
-77 91 0 4 -18 25 -40 47 -93 93 -190 202 -184 207 3 3 0 9 -7 14 -8 5 -10 3
-4 -7 4 -8 -7 0 -24 18 -17 18 -31 36 -31 41 0 6 -28 36 -62 68 -35 32 -57 54
-49 49 10 -5 12 -4 7 3 -4 7 -14 12 -22 12 -8 0 -14 3 -14 8 0 4 -54 61 -119
127 -66 65 -117 124 -114 129 4 6 2 8 -2 3 -11 -9 -56 33 -49 45 3 5 0 7 -8 6
-7 -2 -12 2 -11 9 1 6 -39 51 -90 101 -167 161 -288 288 -282 295 3 4 2 5 -2
2 -9 -7 -34 15 -28 25 3 4 -70 82 -163 172 -92 91 -210 211 -262 268 -52 57
-105 112 -117 123 -12 11 -20 24 -17 29 3 5 0 7 -7 6 -7 -2 -17 7 -24 18 -15
30 -36 54 -46 54 -5 0 -10 -319 -11 -717 l-3 -718 -677 -3 c-600 -2 -677 0
-672 13 4 8 1 15 -5 15 -6 0 -11 13 -11 28 0 15 -5 33 -12 40 -7 7 -8 12 -4
12 5 0 3 7 -4 15 -7 8 -10 15 -6 15 3 0 0 16 -8 35 -8 19 -12 35 -8 35 3 0 1
5 -5 11 -6 6 -9 18 -6 25 3 8 0 14 -6 14 -6 0 -11 13 -11 29 0 16 -4 31 -9 33
-6 2 -12 17 -15 33 -2 17 -5 31 -6 33 -2 1 -4 7 -5 12 -1 6 -4 13 -5 18 -1 4
-2 11 -1 16 1 4 -4 14 -10 22 -6 8 -8 14 -4 14 4 0 2 7 -5 15 -7 8 -9 15 -5
15 4 0 2 6 -4 13 -6 8 -8 17 -4 20 3 4 0 7 -7 7 -7 0 -10 3 -7 7 4 3 2 12 -4
20 -6 7 -8 13 -4 13 4 0 2 7 -5 15 -7 8 -9 15 -5 15 4 0 2 7 -5 15 -7 8 -9 15
-5 15 4 0 2 7 -5 15 -7 8 -9 15 -5 15 4 0 2 6 -4 13 -6 8 -13 24 -15 38 -3 13
-5 25 -7 27 -1 1 -3 7 -4 12 -1 6 -4 12 -5 15 -1 3 -4 10 -5 15 -1 6 -4 12 -5
15 -1 3 -3 9 -4 14 0 5 -4 12 -8 16 -4 4 -4 13 -2 20 3 7 1 16 -5 20 -6 3 -11
17 -11 30 0 13 -4 26 -10 30 -5 3 -7 12 -3 20 3 8 0 15 -6 15 -6 0 -11 13 -11
29 0 16 -4 31 -9 33 -6 1 -12 17 -15 33 -2 17 -5 31 -6 33 -2 1 -4 7 -5 12 -1
6 -3 11 -5 13 -2 3 -11 40 -12 55 -1 6 -6 12 -11 12 -5 0 -7 6 -4 14 3 8 3 17
-1 21 -4 4 -8 11 -8 16 -1 5 -2 10 -3 12 -2 1 -5 13 -7 27 -3 13 -9 29 -14 34
-6 6 -10 20 -10 32 0 13 -4 26 -10 29 -5 3 -10 17 -10 30 0 13 -5 27 -10 30
-6 4 -8 10 -5 14 2 5 -2 16 -9 27 -8 10 -12 24 -9 31 3 7 0 13 -7 13 -6 0 -9
4 -5 9 3 5 1 12 -5 16 -6 4 -8 11 -5 16 4 5 2 9 -3 9 -5 0 -12 18 -16 40 -3
22 -11 40 -16 40 -6 0 -9 3 -8 8 4 11 -75 172 -84 172 -5 0 -6 5 -3 10 3 6 -1
13 -9 16 -9 3 -16 10 -16 15 0 5 -15 26 -33 46 -17 19 -31 39 -30 43 2 9 -58
69 -72 71 -5 0 -9 5 -7 11 1 5 -1 7 -6 4 -5 -3 -24 10 -42 29 -18 19 -37 32
-41 30 -4 -3 -19 9 -33 26 -14 17 -26 27 -26 23 0 -5 -7 2 -16 14 -8 12 -22
22 -29 22 -8 0 -22 11 -31 25 -9 14 -20 23 -24 20 -4 -3 -10 2 -14 10 -3 8
-12 15 -20 15 -7 0 -16 7 -20 15 -3 8 -11 15 -19 15 -7 0 -28 15 -46 33 -19
17 -37 32 -40 32 -4 0 -22 15 -41 32 -19 18 -39 33 -45 33 -5 0 -28 19 -50 40
-22 22 -45 40 -51 40 -6 0 -19 11 -28 25 -9 14 -21 23 -26 20 -5 -3 -14 4 -20
15 -6 11 -17 20 -24 20 -8 0 -21 11 -30 25 -9 14 -20 24 -25 22 -5 -1 -27 15
-49 36 -22 20 -44 37 -49 37 -4 0 -30 23 -58 50 -27 28 -54 50 -60 50 -7 0
-23 12 -37 28 -14 15 -49 49 -79 75 -105 95 -543 532 -541 540 1 5 -1 6 -6 3
-5 -3 -19 9 -32 26 -27 36 -120 137 -167 181 -18 17 -33 36 -33 43 0 7 -14 24
-31 38 -17 14 -28 26 -24 26 3 0 -10 14 -30 31 -19 17 -32 36 -28 42 3 6 1 7
-5 3 -7 -4 -16 2 -21 17 -5 13 -22 34 -38 46 -15 13 -21 19 -13 15 8 -4 -4 10
-27 30 -24 21 -42 41 -40 45 1 5 -9 20 -23 35 -42 44 -65 71 -65 78 0 3 -11
18 -25 32 -42 43 -59 64 -54 69 3 2 -7 12 -21 21 -14 9 -25 22 -25 29 0 6 -15
28 -33 47 -17 19 -32 37 -32 40 0 7 -23 35 -47 57 -9 9 -15 20 -12 25 3 4 -2
11 -11 14 -9 4 -22 19 -30 35 -9 16 -25 38 -37 49 -12 11 -18 20 -13 20 5 0
-6 15 -23 33 -18 18 -29 36 -26 40 4 4 -1 9 -10 13 -9 3 -16 12 -16 19 0 7 -7
16 -16 19 -8 3 -12 10 -9 16 3 6 -1 13 -9 16 -9 3 -16 12 -16 19 0 7 -11 23
-25 36 -13 13 -25 30 -25 37 0 6 -5 12 -11 12 -5 0 -7 5 -4 10 3 6 -1 13 -9
16 -9 3 -16 10 -16 15 0 5 -9 19 -20 31 -10 13 -19 27 -19 31 1 5 -11 22 -26
37 -15 15 -27 32 -28 37 -2 15 -32 63 -39 63 -5 0 -8 6 -8 13 0 8 -9 22 -20
32 -11 10 -17 22 -14 26 3 5 -2 12 -10 15 -9 3 -16 12 -16 20 0 8 -4 14 -10
14 -5 0 -9 3 -8 8 2 10 -35 72 -44 72 -5 0 -8 6 -8 14 0 8 -8 22 -17 32 -10
10 -18 21 -18 25 0 5 -8 17 -17 28 -9 11 -14 22 -11 25 3 3 -2 8 -11 12 -9 3
-13 10 -10 15 3 5 0 9 -5 9 -6 0 -11 5 -11 10 0 6 -9 20 -20 32 -10 12 -17 24
-15 28 2 4 -5 17 -16 28 -11 12 -16 22 -12 22 4 0 0 5 -10 11 -9 6 -15 14 -12
18 2 5 -2 14 -10 21 -8 7 -15 19 -15 26 0 8 -4 14 -10 14 -5 0 -10 6 -10 13 0
8 -9 24 -20 37 -11 12 -17 26 -15 30 3 4 -2 11 -11 14 -8 3 -13 10 -10 14 3 5
-3 18 -14 29 -10 12 -16 24 -13 27 4 3 1 6 -5 6 -7 0 -12 7 -12 15 0 8 -5 15
-11 15 -5 0 -7 5 -4 10 3 6 2 10 -3 10 -6 0 -13 11 -16 25 -4 14 -11 25 -17
25 -6 0 -7 5 -4 10 3 6 1 10 -5 10 -6 0 -8 5 -5 10 3 6 -1 13 -9 16 -9 3 -14
10 -11 14 3 5 -1 15 -9 22 -7 8 -17 24 -20 36 -4 12 -12 22 -17 22 -6 0 -7 5
-4 10 3 6 1 10 -5 10 -6 0 -8 5 -5 10 3 6 1 10 -5 10 -6 0 -8 5 -5 10 3 6 2
10 -3 10 -6 0 -13 11 -16 25 -4 14 -11 25 -17 25 -6 0 -8 4 -4 9 3 5 -2 17
-11 25 -8 9 -13 16 -9 16 4 0 -1 7 -9 16 -9 8 -14 20 -11 25 4 5 1 9 -4 9 -6
0 -11 9 -11 20 0 11 -3 20 -8 20 -8 0 -47 81 -44 93 1 4 -2 7 -8 7 -5 0 -10 9
-10 20 0 11 -4 20 -10 20 -5 0 -10 9 -10 20 0 11 -4 20 -9 20 -8 0 -19 27 -17
41 1 3 -7 13 -17 23 -9 10 -15 22 -12 27 4 5 1 9 -4 9 -6 0 -11 9 -11 20 0 11
-5 20 -10 20 -6 0 -9 3 -8 8 4 13 -26 82 -35 82 -4 0 -5 5 -2 10 3 6 1 10 -5
10 -6 0 -8 5 -5 10 3 6 1 10 -4 10 -6 0 -10 3 -9 8 1 4 -5 21 -12 37 -7 17
-13 33 -12 38 1 4 -2 7 -6 7 -4 0 -9 10 -9 22 -1 13 -7 24 -13 26 -5 2 -8 8
-4 13 3 5 0 9 -5 9 -6 0 -10 3 -9 8 3 15 -15 62 -24 62 -5 0 -6 5 -3 10 3 6 1
10 -5 10 -6 0 -8 5 -4 11 3 6 1 14 -5 18 -6 4 -14 21 -17 37 -3 16 -8 31 -12
34 -4 3 -9 14 -10 25 -2 11 -8 22 -13 23 -5 2 -9 12 -9 22 0 10 -5 22 -10 25
-6 4 -8 11 -5 16 4 5 1 9 -6 9 -7 0 -9 3 -6 6 3 4 1 16 -5 28 -7 11 -13 24
-14 29 -1 4 -3 9 -4 12 -1 3 -3 8 -4 13 -1 4 -7 16 -13 27 -6 11 -12 23 -12
27 -2 10 -9 33 -18 56 -3 9 -5 20 -5 25 1 4 -3 7 -9 7 -5 0 -8 3 -6 8 3 4 0
18 -6 32 -5 14 -12 34 -14 45 -2 10 -9 23 -16 27 -6 4 -8 8 -3 8 5 0 3 7 -4
15 -7 8 -9 15 -5 15 4 0 1 7 -6 17 -8 9 -13 18 -11 20 7 7 -10 63 -19 63 -5 0
-9 11 -9 24 0 14 -5 28 -10 31 -6 4 -8 10 -5 15 3 5 1 11 -5 15 -6 4 -8 10 -5
15 3 5 1 11 -5 15 -5 3 -10 17 -10 30 0 13 -4 27 -10 30 -5 3 -10 16 -10 29 0
12 -3 26 -7 30 -5 4 -9 12 -9 17 -1 5 -3 11 -4 14 -1 3 -4 10 -5 15 -1 6 -4
12 -5 15 -1 3 -4 10 -5 15 -1 6 -3 11 -4 13 -2 1 -4 13 -7 26 -2 14 -9 30 -15
38 -6 7 -8 13 -4 13 4 0 2 6 -4 13 -6 8 -8 16 -5 19 3 4 -2 20 -11 37 -8 17
-13 31 -10 31 4 0 3 6 -2 13 -4 6 -8 15 -9 20 -1 4 -2 8 -4 10 -1 1 -4 15 -6
32 -3 16 -10 35 -15 41 -6 7 -11 23 -13 36 -2 19 -11 53 -31 118 -1 3 -4 12
-7 20 -20 50 -26 80 -17 80 5 0 9 -6 9 -13z m5258 -378 c2 -5 8 -7 13 -3 5 3
9 0 9 -7 0 -7 3 -9 6 -6 4 3 16 0 28 -8 11 -8 28 -15 38 -15 10 0 18 -4 18 -8
0 -4 10 -9 22 -9 13 -1 24 -7 26 -13 2 -5 8 -8 13 -4 5 3 9 0 9 -5 0 -6 3 -10
8 -9 4 1 21 -5 38 -15 17 -9 34 -13 38 -10 3 4 6 1 6 -6 0 -7 4 -10 9 -6 5 3
17 -2 25 -11 9 -8 16 -12 16 -8 0 3 7 1 15 -6 8 -7 15 -9 15 -6 0 4 7 0 16 -8
8 -9 20 -14 25 -11 5 4 9 1 9 -5 0 -6 5 -8 10 -5 6 3 10 1 10 -4 0 -6 3 -10 8
-9 9 3 386 -185 390 -195 2 -4 8 -5 13 -1 5 3 9 0 9 -7 0 -7 3 -10 6 -6 4 3
13 -1 21 -9 8 -8 19 -12 24 -9 5 4 9 2 9 -4 0 -6 11 -13 25 -17 14 -3 25 -10
25 -16 0 -5 4 -7 9 -3 5 3 16 -1 23 -9 18 -17 81 -51 91 -48 4 1 7 -3 7 -9 0
-5 5 -7 10 -4 6 3 13 -1 16 -9 3 -9 10 -14 14 -11 5 3 14 -1 22 -8 18 -18 61
-42 71 -39 4 1 7 -3 7 -9 0 -5 5 -7 10 -4 6 3 10 1 10 -4 0 -6 7 -11 15 -11 8
0 15 -4 15 -8 0 -9 45 -33 70 -38 8 -2 16 -8 18 -13 2 -6 9 -11 17 -11 7 0 18
-7 25 -15 7 -8 16 -12 21 -9 5 3 12 -2 15 -10 3 -9 10 -13 15 -10 5 3 9 0 9
-6 0 -6 5 -8 10 -5 6 3 10 2 10 -2 0 -10 58 -46 80 -50 8 -1 16 -7 18 -12 2
-6 10 -11 18 -11 8 0 14 -5 14 -11 0 -5 5 -7 10 -4 6 3 10 1 10 -4 0 -6 5 -11
10 -11 6 0 20 -9 32 -20 12 -10 25 -17 30 -14 4 3 8 1 8 -5 0 -6 11 -13 24
-17 14 -3 27 -12 30 -21 3 -8 10 -12 15 -9 5 3 14 -1 21 -9 7 -8 18 -15 25
-15 7 0 16 -7 19 -16 3 -8 10 -13 16 -9 5 3 17 -3 27 -14 9 -11 20 -18 25 -15
4 3 8 0 8 -5 0 -6 7 -11 15 -11 8 0 15 -4 15 -10 0 -5 11 -12 25 -16 14 -3 25
-10 25 -15 0 -5 6 -9 13 -9 8 0 22 -9 32 -20 10 -11 21 -18 25 -15 3 2 14 -5
23 -16 9 -10 23 -19 31 -19 8 0 17 -7 20 -16 3 -8 10 -13 14 -10 5 3 20 -5 33
-17 13 -12 26 -21 30 -20 3 1 17 -9 29 -22 13 -14 29 -25 36 -25 6 0 15 -7 18
-16 3 -8 10 -13 15 -10 5 3 12 -1 15 -10 3 -8 10 -13 15 -9 6 3 15 -4 21 -15
6 -11 15 -18 21 -15 5 4 12 -1 15 -9 3 -9 12 -16 19 -16 7 0 15 -7 19 -15 3
-8 10 -15 16 -15 11 0 28 -12 61 -45 11 -11 24 -20 29 -20 5 0 26 -16 46 -35
21 -19 41 -35 46 -35 4 0 21 -15 38 -33 16 -18 30 -31 30 -28 0 7 40 -29 100
-89 28 -27 54 -50 58 -50 11 0 507 -498 505 -506 -1 -4 28 -36 65 -70 37 -35
66 -67 64 -72 -1 -5 2 -6 7 -3 5 4 24 -14 41 -38 16 -25 40 -52 52 -61 13 -8
19 -15 15 -15 -3 0 14 -19 38 -41 25 -23 45 -46 45 -51 0 -6 9 -21 20 -35 11
-14 20 -22 20 -19 0 4 12 -7 28 -25 15 -18 27 -35 27 -38 0 -14 32 -50 38 -44
4 3 7 1 7 -5 0 -6 8 -18 18 -28 9 -10 17 -21 17 -25 0 -4 9 -17 20 -28 31 -32
50 -55 50 -63 0 -4 9 -14 20 -22 11 -8 20 -19 20 -24 0 -6 12 -23 26 -40 15
-16 30 -39 34 -51 3 -12 11 -19 16 -16 5 4 9 0 9 -8 0 -8 7 -18 16 -21 8 -3
13 -10 9 -15 -3 -6 1 -13 8 -18 8 -4 22 -23 31 -40 9 -18 21 -33 26 -33 6 0
10 -7 10 -15 0 -8 5 -15 11 -15 5 0 8 -4 4 -9 -3 -6 4 -15 16 -21 11 -7 18
-14 15 -18 -4 -3 6 -18 21 -34 15 -15 23 -28 19 -28 -5 0 3 -12 18 -26 14 -15
26 -31 26 -36 0 -5 9 -18 20 -30 10 -12 17 -25 14 -30 -3 -4 2 -11 10 -14 9
-3 14 -9 11 -14 -2 -4 7 -17 20 -30 13 -13 22 -27 19 -31 -3 -5 0 -9 5 -9 6 0
11 -7 11 -15 0 -8 3 -15 8 -15 4 0 16 -18 26 -40 11 -22 23 -40 28 -40 4 0 8
-7 8 -15 0 -8 5 -15 11 -15 5 0 7 -4 4 -10 -3 -5 -1 -10 4 -10 6 0 11 -6 11
-14 0 -7 7 -19 15 -26 8 -7 13 -16 10 -20 -2 -4 5 -16 15 -28 11 -12 20 -25
20 -30 0 -5 7 -15 15 -22 8 -7 12 -16 9 -21 -3 -5 -1 -9 4 -9 5 0 13 -8 16
-17 8 -22 28 -56 44 -75 6 -8 9 -18 5 -21 -3 -4 -1 -7 5 -7 7 0 12 -6 12 -13
0 -8 9 -24 20 -37 11 -12 17 -27 14 -31 -3 -5 0 -9 5 -9 6 0 11 -7 11 -15 0
-8 5 -15 11 -15 5 0 7 -4 4 -10 -3 -5 -1 -10 5 -10 6 0 8 -4 5 -10 -3 -5 -2
-10 2 -10 5 0 14 -15 21 -34 7 -18 21 -43 32 -56 11 -12 17 -27 14 -31 -3 -5
0 -9 6 -9 6 0 8 -4 5 -10 -3 -5 -1 -10 5 -10 6 0 8 -5 5 -10 -3 -6 1 -13 9
-16 9 -3 14 -10 11 -14 -3 -5 1 -15 9 -23 8 -8 12 -17 9 -21 -4 -3 -1 -6 6 -6
7 0 9 -4 6 -10 -3 -5 -1 -10 5 -10 6 0 9 -4 6 -9 -4 -5 -3 -11 1 -13 10 -4
178 -341 175 -350 -1 -5 3 -8 9 -8 5 0 7 -4 4 -10 -3 -5 -1 -10 5 -10 6 0 8
-4 5 -10 -3 -5 -1 -10 5 -10 6 0 9 -4 5 -9 -3 -5 0 -15 7 -23 7 -7 15 -22 16
-33 2 -11 8 -22 13 -23 5 -2 7 -8 3 -13 -3 -5 0 -9 6 -9 6 0 8 -4 5 -10 -3 -5
-1 -10 5 -10 6 0 8 -4 5 -10 -3 -5 -1 -10 6 -10 7 0 10 -3 6 -6 -3 -4 4 -25
15 -48 12 -22 21 -44 20 -48 -1 -5 2 -8 8 -8 6 0 9 -3 8 -7 -1 -5 5 -22 15
-39 9 -17 13 -34 10 -38 -4 -3 0 -6 7 -6 7 0 11 -3 7 -6 -3 -4 1 -21 10 -38
10 -17 16 -34 15 -38 -1 -5 3 -8 9 -8 5 0 7 -4 4 -10 -3 -5 -1 -10 4 -10 6 0
11 -8 11 -18 0 -10 5 -23 12 -30 7 -7 8 -12 4 -12 -4 0 2 -15 13 -33 11 -19
18 -37 14 -40 -3 -4 0 -7 7 -7 7 0 10 -3 7 -6 -3 -4 -1 -16 5 -28 7 -11 11
-24 10 -28 -1 -5 3 -8 9 -8 5 0 8 -4 4 -9 -3 -5 -1 -12 5 -16 6 -4 8 -11 5
-16 -4 -5 -1 -9 6 -9 7 0 9 -3 6 -6 -3 -4 -1 -16 5 -28 7 -11 11 -24 10 -28
-1 -5 3 -8 9 -8 5 0 8 -4 4 -9 -3 -5 -1 -12 5 -16 6 -4 8 -11 5 -16 -4 -5 -2
-9 2 -9 5 0 9 -10 10 -22 1 -11 6 -24 10 -27 4 -3 10 -15 11 -26 2 -11 9 -23
15 -27 7 -4 8 -8 3 -8 -4 0 -1 -12 9 -26 9 -14 19 -38 21 -52 3 -15 11 -30 17
-34 7 -4 8 -8 3 -8 -5 0 -3 -6 3 -13 6 -8 8 -17 4 -20 -3 -4 -2 -7 3 -7 5 0
10 -10 11 -22 1 -11 6 -24 12 -27 5 -4 12 -19 15 -35 3 -15 10 -34 17 -42 6
-8 8 -14 4 -14 -4 0 -2 -6 4 -13 6 -8 8 -17 4 -20 -3 -4 -1 -7 5 -7 7 0 12 -9
12 -19 0 -11 5 -23 10 -26 6 -4 8 -11 5 -16 -4 -5 -1 -9 4 -9 6 0 10 -3 9 -7
0 -5 2 -17 6 -28 5 -11 10 -27 14 -35 3 -8 6 -17 6 -20 1 -3 7 -15 14 -27 7
-13 9 -23 5 -23 -4 0 -3 -4 4 -8 6 -4 14 -20 17 -36 3 -15 10 -34 17 -42 6 -8
8 -14 4 -14 -4 0 -2 -7 5 -15 7 -8 9 -15 6 -15 -4 0 -1 -10 6 -22 7 -13 13
-25 14 -28 1 -6 13 -39 24 -65 19 -46 23 -61 21 -72 -1 -7 2 -13 6 -13 5 0 9
-10 10 -22 1 -11 7 -24 14 -28 6 -4 8 -13 5 -19 -4 -6 -2 -11 4 -11 6 0 9 -4
5 -9 -3 -5 -1 -12 5 -16 6 -4 8 -11 5 -16 -4 -5 -2 -9 4 -9 6 0 8 -7 5 -15 -4
-8 -1 -15 7 -15 7 0 9 -3 6 -7 -4 -3 -2 -12 4 -20 6 -7 9 -13 5 -13 -4 0 0
-13 9 -30 9 -16 13 -30 10 -30 -3 0 0 -10 7 -22 7 -13 13 -26 14 -30 1 -5 3
-10 4 -13 1 -3 4 -9 5 -15 1 -5 3 -11 4 -12 2 -2 5 -14 7 -28 2 -13 10 -28 17
-32 6 -4 8 -8 4 -8 -5 0 -5 -6 0 -12 4 -7 8 -16 9 -20 1 -5 3 -10 4 -13 1 -3
4 -9 5 -15 1 -5 3 -11 4 -12 2 -2 5 -14 7 -28 3 -13 9 -29 14 -34 6 -6 10 -20
10 -32 0 -12 4 -24 10 -26 5 -1 11 -12 13 -23 1 -11 6 -26 10 -32 5 -7 5 -17
2 -23 -3 -5 -1 -10 4 -10 6 0 10 -3 10 -7 -1 -5 0 -11 1 -15 1 -5 4 -12 5 -18
1 -5 4 -12 5 -15 1 -3 4 -9 5 -15 1 -5 4 -12 5 -15 3 -5 3 -6 15 -50 4 -16 13
-39 18 -50 6 -11 13 -31 15 -45 2 -14 7 -26 13 -28 5 -2 9 -17 9 -33 0 -16 5
-29 10 -29 6 0 10 -13 10 -30 0 -16 5 -30 11 -30 5 0 8 -4 4 -9 -3 -5 -1 -12
4 -16 6 -3 8 -12 4 -20 -3 -8 0 -15 6 -15 6 0 8 -7 5 -15 -4 -8 -1 -15 5 -15
6 0 11 -13 11 -30 0 -16 5 -30 10 -30 6 0 10 -13 10 -28 0 -16 3 -32 7 -36 5
-4 9 -12 9 -17 1 -5 3 -11 4 -14 1 -3 4 -9 5 -15 1 -5 3 -11 4 -12 2 -2 4 -14
7 -28 2 -14 7 -32 11 -40 3 -8 7 -18 8 -22 2 -5 3 -9 5 -10 1 -2 3 -11 5 -21
2 -10 7 -26 11 -35 9 -21 12 -32 17 -54 2 -10 6 -21 10 -24 4 -4 7 -20 7 -35
0 -15 5 -31 10 -34 6 -4 7 -11 4 -17 -4 -6 -2 -13 4 -17 6 -3 12 -18 14 -33 2
-15 7 -30 11 -34 20 -21 2 -22 -35 -2 -24 12 -46 21 -50 20 -5 -1 -8 3 -8 9 0
5 -4 7 -10 4 -5 -3 -10 -1 -10 5 0 6 -4 8 -10 5 -5 -3 -10 -1 -10 5 0 6 -4 8
-10 5 -5 -3 -10 -1 -10 5 0 6 -4 8 -10 5 -5 -3 -10 -2 -10 3 0 6 -18 17 -39
25 -22 9 -42 21 -46 27 -3 6 -11 8 -16 5 -5 -4 -9 -2 -9 3 0 6 -20 18 -45 29
-25 10 -45 22 -45 26 0 5 -4 6 -9 2 -5 -3 -16 1 -24 9 -8 8 -17 13 -19 10 -3
-2 -11 2 -18 11 -7 8 -18 15 -25 15 -7 0 -18 7 -25 15 -7 8 -16 12 -21 9 -5
-3 -9 0 -9 6 0 6 -4 8 -10 5 -5 -3 -10 -1 -10 4 0 6 -7 11 -15 11 -8 0 -15 5
-15 11 0 5 -5 7 -10 4 -5 -3 -10 -1 -10 5 0 6 -4 8 -10 5 -6 -3 -10 -1 -10 5
0 6 -4 8 -10 5 -5 -3 -10 -2 -10 3 0 9 -50 37 -62 34 -5 -1 -8 3 -8 9 0 5 -4
7 -10 4 -5 -3 -10 -1 -10 5 0 6 -5 8 -10 5 -6 -3 -13 1 -16 9 -3 9 -10 13 -15
10 -5 -3 -9 0 -9 7 0 7 -3 10 -6 6 -4 -3 -21 5 -39 18 -17 14 -35 22 -38 18
-4 -3 -7 -1 -7 6 0 7 -4 9 -10 6 -5 -3 -10 -1 -10 5 0 6 -4 9 -9 6 -5 -3 -14
1 -21 9 -7 8 -19 15 -26 15 -8 0 -14 4 -14 10 0 5 -11 12 -25 16 -14 3 -25 10
-25 16 0 5 -4 6 -10 3 -5 -3 -10 -1 -10 5 0 6 -4 9 -9 6 -5 -3 -14 1 -21 9 -7
8 -19 15 -26 15 -8 0 -14 5 -14 11 0 5 -4 7 -10 4 -5 -3 -10 -1 -10 4 0 6 -7
11 -15 11 -8 0 -15 5 -15 12 0 6 -3 9 -6 5 -4 -3 -21 5 -39 18 -17 14 -35 22
-38 18 -4 -3 -7 -1 -7 6 0 7 -4 10 -9 7 -5 -3 -12 1 -15 10 -3 8 -10 13 -15
10 -4 -3 -19 3 -31 14 -13 11 -29 20 -37 20 -7 0 -13 5 -13 11 0 5 -5 7 -10 4
-6 -3 -13 1 -16 9 -3 9 -13 16 -20 16 -8 0 -24 9 -36 20 -12 10 -25 17 -30 14
-4 -3 -8 0 -8 5 0 6 -6 11 -14 11 -7 0 -19 7 -26 15 -7 8 -16 12 -21 9 -5 -3
-9 0 -9 5 0 6 -7 11 -15 11 -8 0 -15 5 -15 11 0 5 -4 8 -9 5 -4 -3 -16 3 -26
14 -10 11 -21 17 -25 15 -4 -3 -11 2 -14 11 -3 8 -10 13 -15 10 -5 -4 -16 1
-24 9 -9 8 -20 15 -26 15 -6 0 -11 5 -11 11 0 5 -4 7 -10 4 -5 -3 -10 -2 -10
3 0 5 -8 13 -17 16 -34 13 -63 31 -63 39 0 4 -4 6 -8 3 -5 -3 -21 6 -37 20
-15 13 -34 24 -42 24 -7 0 -13 4 -13 9 0 5 -8 11 -17 15 -10 3 -31 15 -48 26
-16 11 -38 23 -47 26 -10 4 -18 11 -18 16 0 5 -4 7 -8 4 -5 -3 -18 2 -29 12
-26 23 -55 41 -75 48 -9 3 -19 13 -22 21 -3 8 -10 11 -16 8 -5 -3 -10 -1 -10
5 0 6 -4 9 -8 6 -5 -3 -16 4 -25 15 -9 10 -24 19 -32 19 -8 0 -15 5 -15 10 0
6 -5 10 -10 10 -6 0 -20 9 -32 20 -12 10 -25 17 -30 14 -4 -3 -8 0 -8 5 0 6
-7 11 -15 11 -8 0 -15 5 -15 10 0 6 -5 10 -10 10 -6 0 -20 9 -32 20 -12 10
-25 17 -30 14 -4 -3 -11 2 -14 10 -3 9 -10 13 -15 10 -5 -3 -9 0 -9 5 0 6 -7
11 -15 11 -8 0 -15 5 -15 10 0 6 -7 10 -15 10 -8 0 -15 5 -15 10 0 6 -7 10
-15 10 -8 0 -15 4 -15 9 0 5 -8 11 -17 15 -26 8 -57 29 -66 44 -5 7 -12 10
-16 8 -4 -3 -19 5 -32 17 -13 12 -27 22 -32 22 -4 0 -12 7 -17 15 -5 8 -10 11
-10 5 0 -5 -5 -2 -11 8 -6 9 -14 15 -20 12 -5 -4 -12 1 -15 9 -3 9 -10 14 -14
11 -4 -3 -11 2 -14 11 -3 8 -10 13 -15 10 -5 -3 -12 1 -15 10 -3 8 -10 12 -16
9 -5 -3 -10 -1 -10 4 0 6 -6 11 -14 11 -8 0 -17 7 -20 16 -3 8 -10 13 -15 10
-5 -3 -20 6 -35 21 -14 14 -26 22 -26 17 0 -4 -13 5 -30 21 -16 16 -30 25 -30
19 -1 -5 -9 1 -19 13 -10 12 -21 19 -25 16 -3 -4 -6 -1 -6 5 0 7 -6 12 -14 12
-8 0 -17 7 -20 16 -3 8 -10 12 -16 9 -5 -3 -10 -1 -10 4 0 6 -7 11 -15 11 -8
0 -15 5 -15 10 0 6 -6 10 -13 10 -8 0 -24 11 -37 25 -12 13 -26 23 -30 20 -3
-2 -18 7 -33 21 -14 13 -30 24 -35 24 -6 0 -13 7 -16 16 -4 9 -9 14 -12 11 -4
-3 -15 4 -26 16 -11 12 -16 15 -12 7 4 -8 -5 -3 -21 13 -15 15 -33 27 -40 27
-7 0 -16 7 -19 16 -3 8 -10 13 -14 10 -5 -3 -20 6 -35 20 -14 13 -30 24 -35
24 -5 0 -19 11 -32 25 -13 14 -29 25 -36 25 -6 0 -15 7 -18 16 -3 8 -10 12
-16 9 -6 -3 -13 1 -16 9 -3 9 -12 16 -20 16 -8 0 -14 4 -14 10 0 5 -15 16 -34
25 -19 9 -37 23 -40 31 -3 9 -10 12 -16 9 -6 -3 -13 1 -16 9 -3 9 -13 16 -21
16 -8 0 -12 4 -8 9 3 5 -5 13 -17 17 -13 4 -30 15 -39 25 -9 10 -19 16 -23 12
-3 -3 -6 -1 -6 5 0 7 -7 12 -15 12 -8 0 -19 9 -25 21 -7 11 -14 18 -17 15 -5
-5 -16 2 -50 34 -9 8 -19 15 -22 15 -3 0 -21 14 -40 30 -18 17 -37 29 -42 28
-5 -2 -13 6 -19 17 -6 11 -15 18 -19 15 -5 -3 -11 2 -15 10 -3 8 -11 15 -18
15 -7 0 -26 14 -41 30 -16 17 -35 30 -42 30 -8 0 -19 9 -25 20 -6 11 -14 19
-18 17 -8 -2 -32 16 -60 46 -9 9 -22 17 -28 17 -7 0 -22 12 -33 26 -12 15 -21
23 -21 18 0 -5 -5 -1 -11 9 -5 9 -16 17 -24 17 -7 0 -23 12 -34 26 -12 15 -21
23 -21 18 0 -5 -5 -1 -11 9 -5 9 -15 17 -22 17 -6 0 -21 12 -33 26 -13 14 -26
26 -31 27 -11 2 -41 27 -66 55 -11 12 -26 22 -32 22 -6 0 -33 22 -60 49 -27
27 -52 48 -55 46 -3 -2 -39 30 -80 71 -41 42 -88 82 -103 90 -16 9 -25 20 -21
26 4 6 3 8 -3 5 -5 -3 -16 2 -24 11 -9 9 -40 37 -69 62 -29 25 -73 65 -97 90
-24 25 -49 45 -56 45 -6 1 -11 6 -10 13 2 7 -1 11 -5 9 -9 -2 -40 24 -96 79
-17 17 -39 34 -49 38 -11 3 -15 11 -11 17 4 7 3 9 -3 6 -5 -3 -34 18 -64 48
-30 30 -59 55 -65 55 -7 0 -28 18 -48 40 -20 22 -36 38 -36 36 0 -7 -65 53
-140 129 -38 39 -73 70 -78 70 -4 0 -76 70 -159 155 -233 239 -346 360 -337
360 2 0 -14 16 -36 36 -22 20 -38 39 -37 42 1 4 -6 18 -16 32 -9 13 -17 21
-17 16 0 -5 -10 4 -22 20 -13 16 -23 32 -23 37 0 5 -8 14 -17 21 -10 7 -18 18
-18 24 0 5 -7 13 -16 16 -8 3 -12 10 -9 16 3 6 0 13 -8 16 -9 3 -21 19 -27 35
-7 16 -17 29 -22 29 -5 0 -14 13 -19 29 -6 16 -17 32 -25 35 -8 3 -14 12 -14
21 0 8 -5 15 -11 15 -5 0 -8 4 -5 9 3 5 -1 12 -10 15 -8 3 -13 10 -10 14 3 5
-3 18 -14 29 -10 12 -16 23 -13 27 3 3 -2 8 -11 12 -9 3 -14 10 -11 14 3 4 -2
13 -10 20 -8 7 -15 19 -15 26 0 8 -5 14 -11 14 -5 0 -7 5 -4 10 3 6 1 10 -4
10 -6 0 -10 3 -9 8 3 12 -25 62 -34 62 -5 0 -7 4 -3 9 3 5 -2 16 -10 24 -8 9
-15 23 -15 31 0 9 -3 16 -8 16 -7 0 -31 48 -32 63 0 4 -7 22 -17 40 -9 17 -16
35 -15 40 1 4 -2 7 -8 7 -5 0 -10 11 -10 25 0 14 -5 25 -10 25 -6 0 -9 3 -9 8
1 4 0 10 -1 15 -1 4 -4 12 -5 17 -1 6 -4 12 -5 15 -1 3 -4 10 -5 15 -1 6 -4
12 -5 15 -1 3 -4 10 -5 15 -1 6 -4 12 -5 15 -1 3 -4 10 -5 15 -1 6 -3 11 -5
13 -1 1 -4 15 -6 32 -3 16 -10 35 -16 42 -6 8 -8 16 -5 19 3 3 1 20 -5 37 -6
18 -14 59 -20 92 -5 33 -11 71 -14 85 -11 53 -14 122 -14 331 0 247 5 341 18
396 6 21 10 57 11 80 0 22 5 53 11 68 5 14 10 44 10 65 0 21 4 41 9 45 6 3 10
13 10 23 0 20 4 43 12 57 3 6 6 23 7 39 1 16 6 34 12 41 5 6 7 15 4 18 -3 3
-2 12 2 19 8 12 10 18 17 53 2 8 6 18 10 21 4 4 7 18 7 30 0 13 5 26 10 29 6
4 8 10 5 15 -3 5 -1 11 5 15 6 4 8 10 5 15 -3 5 -1 11 5 15 6 4 8 10 5 15 -3
5 -1 11 5 15 5 3 10 17 10 31 0 13 5 24 10 24 6 0 10 10 10 23 0 13 3 27 8 31
4 4 7 11 7 14 1 4 6 16 12 27 6 11 11 22 11 25 1 21 16 60 23 60 5 0 8 3 7 8
-1 4 5 21 15 38 9 17 13 34 10 38 -4 3 -1 6 5 6 7 0 12 9 12 20 0 11 5 20 12
20 6 0 9 3 5 6 -3 4 1 13 9 21 8 8 12 19 9 24 -4 5 -2 9 3 9 5 0 19 24 33 53
13 28 27 54 32 55 4 2 5 8 1 13 -3 5 0 9 6 9 6 0 8 5 5 10 -3 6 1 13 9 16 9 3
16 13 16 20 0 8 9 24 20 36 10 12 17 24 15 28 -3 5 2 11 11 14 8 3 12 10 9 16
-3 5 -1 10 4 10 6 0 11 6 11 14 0 8 7 17 16 20 8 3 13 10 10 14 -3 5 6 20 19
32 14 13 25 29 25 36 0 7 12 22 26 33 15 12 23 21 18 21 -5 0 -1 5 9 11 10 6
22 22 28 35 5 14 14 22 19 19 6 -4 10 -3 9 2 -1 4 -1 12 0 16 1 11 65 -2 69
-14z m-2182 -5564 c21 -16 54 -46 72 -65 18 -19 37 -35 42 -35 9 0 53 -40 103
-92 17 -18 35 -33 41 -33 9 0 59 -45 118 -107 17 -18 36 -33 42 -33 6 0 42
-32 81 -70 38 -39 74 -70 79 -70 5 0 25 -17 45 -37 20 -21 52 -49 71 -63 18
-14 44 -36 57 -50 13 -14 27 -25 32 -25 9 0 46 -32 98 -87 20 -21 41 -38 47
-38 6 0 45 -34 86 -75 41 -41 78 -75 82 -75 5 0 23 -14 41 -31 17 -17 49 -45
71 -63 84 -68 87 -72 82 -107 -21 -136 -27 -167 -36 -189 -5 -14 -11 -41 -12
-60 -1 -19 -5 -39 -9 -45 -4 -5 -9 -30 -12 -55 -3 -25 -8 -58 -12 -75 -3 -16
-6 -37 -6 -45 -1 -8 -3 -22 -6 -30 -4 -8 -7 -19 -8 -25 0 -5 -4 -26 -8 -45 -9
-44 -16 -85 -23 -130 -3 -19 -7 -44 -9 -55 -3 -11 -7 -36 -10 -55 -4 -19 -9
-48 -12 -65 -2 -16 -5 -60 -5 -97 0 -38 -3 -68 -7 -68 -10 0 -30 -64 -36 -120
-3 -25 -8 -58 -11 -75 -2 -16 -5 -41 -5 -55 -1 -14 -5 -29 -9 -35 -4 -5 -10
-32 -13 -60 -3 -27 -8 -63 -11 -80 -4 -16 -10 -56 -13 -88 l-5 -58 -32 6 c-17
3 -42 8 -56 11 -14 3 -32 6 -40 8 -8 1 -22 5 -30 9 -8 4 -28 9 -45 11 -16 3
-51 11 -77 20 -27 8 -48 12 -48 9 0 -4 -5 -2 -12 5 -7 7 -24 12 -38 12 -15 0
-30 3 -34 7 -4 5 -12 9 -17 9 -5 1 -11 3 -14 4 -3 1 -9 4 -15 5 -5 1 -11 3
-12 5 -2 1 -16 4 -32 6 -16 3 -42 12 -57 20 -15 7 -39 14 -53 14 -14 0 -27 4
-30 8 -3 5 -20 9 -37 10 -18 0 -35 5 -38 9 -3 5 -19 10 -34 11 -16 1 -34 5
-40 9 -13 8 -27 12 -70 18 -15 3 -36 9 -47 15 -10 6 -32 11 -47 12 -15 1 -33
5 -39 10 -6 4 -24 9 -40 10 -16 1 -33 4 -39 7 -14 8 -37 12 -57 12 -10 0 -18
3 -18 7 0 4 -8 8 -17 9 -41 5 -89 15 -108 24 -11 5 -31 11 -45 13 -14 1 -33 6
-42 9 -10 4 -25 9 -34 12 -12 4 -14 11 -9 28 8 23 21 103 31 177 3 25 10 50
15 56 5 6 6 14 3 17 -4 4 -2 19 4 34 6 15 14 51 17 78 6 53 10 79 20 135 4 19
10 62 15 95 5 33 11 74 14 90 2 17 7 55 11 85 3 30 10 69 15 85 5 17 12 57 15
90 3 33 8 74 11 90 2 17 5 46 5 65 1 19 5 42 9 50 5 9 11 49 14 90 3 41 7 82
9 90 7 29 16 99 33 260 2 19 4 53 5 75 1 22 5 47 10 56 4 8 10 44 13 80 11
132 25 255 35 299 5 25 9 52 9 60 0 8 3 40 7 70 4 30 9 69 11 85 2 17 4 45 5
63 3 37 3 37 55 -3z m1502 -1922 c-1 -5 6 -23 15 -40 10 -18 14 -33 10 -33 -5
0 -2 -4 5 -8 7 -5 14 -18 17 -30 2 -11 9 -31 16 -44 7 -13 12 -26 11 -30 -1
-5 3 -8 9 -8 5 0 8 -4 4 -9 -3 -5 -1 -12 5 -16 6 -4 8 -11 5 -16 -4 -5 -2 -9
2 -9 5 0 10 -10 10 -22 1 -13 7 -24 13 -26 5 -2 10 -11 10 -21 0 -9 5 -22 12
-29 7 -7 8 -12 4 -12 -5 0 -3 -7 4 -15 7 -8 9 -15 6 -15 -4 0 -1 -10 6 -22 7
-13 13 -26 14 -30 1 -5 3 -11 4 -15 1 -5 2 -11 1 -15 0 -5 3 -8 7 -8 4 0 8
-10 9 -22 1 -11 7 -24 13 -28 7 -4 11 -11 11 -16 -1 -5 4 -22 10 -39 7 -16 11
-33 10 -37 0 -5 3 -8 9 -8 5 0 7 -7 4 -15 -4 -8 -2 -15 3 -15 5 0 10 -10 10
-22 1 -13 7 -24 13 -26 5 -2 10 -12 10 -21 0 -10 3 -21 7 -25 4 -3 8 -12 9
-19 1 -7 8 -25 15 -42 7 -16 13 -33 14 -37 2 -5 4 -11 5 -15 1 -5 2 -11 1 -15
0 -5 4 -8 9 -8 5 0 9 -3 9 -7 -1 -5 0 -11 1 -15 1 -5 3 -11 5 -15 1 -5 5 -17
9 -28 5 -11 10 -27 14 -35 3 -8 5 -18 4 -21 -1 -9 243 0 308 11 30 5 84 9 120
9 36 1 75 3 88 5 12 3 22 1 22 -5 0 -5 -4 -9 -10 -9 -5 0 -10 -13 -10 -29 0
-17 -4 -32 -8 -35 -5 -3 -9 -19 -10 -36 0 -16 -4 -35 -9 -42 -4 -7 -9 -19 -10
-25 -6 -24 -11 -48 -13 -53 -1 -3 -2 -8 -1 -12 0 -5 -4 -8 -10 -8 -6 0 -9 -7
-5 -15 3 -8 1 -15 -5 -15 -6 0 -8 -4 -4 -9 3 -5 1 -12 -5 -16 -5 -3 -10 -15
-10 -26 0 -10 -5 -19 -11 -19 -5 0 -8 -4 -4 -9 3 -5 1 -12 -5 -16 -6 -4 -8
-11 -5 -16 4 -5 1 -9 -4 -9 -6 0 -10 -3 -9 -7 1 -5 -3 -18 -10 -29 -6 -12 -8
-24 -5 -28 3 -3 0 -6 -7 -6 -7 0 -10 -3 -7 -7 4 -3 2 -12 -4 -20 -6 -7 -8 -13
-3 -13 5 0 3 -4 -4 -9 -7 -4 -14 -18 -15 -29 -1 -12 -6 -22 -11 -22 -5 0 -6
-3 -3 -7 4 -3 2 -12 -4 -20 -6 -7 -8 -13 -4 -13 4 0 2 -6 -4 -14 -7 -8 -14
-27 -17 -43 -3 -15 -9 -29 -15 -31 -5 -2 -9 -15 -9 -28 0 -13 -5 -24 -11 -24
-5 0 -8 -4 -4 -9 3 -5 1 -12 -5 -16 -5 -3 -10 -15 -10 -26 0 -10 -5 -19 -11
-19 -6 0 -9 -7 -5 -15 3 -8 1 -15 -5 -15 -6 0 -8 -4 -4 -9 3 -5 1 -12 -5 -16
-5 -3 -10 -15 -10 -26 0 -10 -5 -19 -10 -19 -6 0 -9 -3 -9 -7 1 -5 0 -11 -1
-15 -1 -5 -3 -11 -4 -15 -1 -5 -7 -18 -14 -31 -7 -12 -10 -22 -6 -22 3 0 -1
-11 -10 -25 -9 -14 -14 -25 -11 -25 3 0 0 -10 -7 -22 -7 -13 -11 -26 -10 -30
1 -5 -2 -8 -8 -8 -6 0 -9 -3 -8 -7 1 -5 -4 -21 -10 -36 -7 -16 -12 -35 -12
-43 0 -8 -5 -14 -10 -14 -6 0 -9 -3 -8 -7 1 -5 -3 -18 -10 -30 -7 -13 -10 -23
-7 -23 4 0 -3 -16 -15 -35 -12 -19 -19 -35 -16 -35 4 0 -1 -11 -10 -25 -9 -14
-13 -25 -9 -25 3 0 -3 -16 -15 -35 -12 -19 -19 -35 -16 -35 4 0 0 -10 -9 -23
-8 -13 -12 -27 -8 -30 3 -4 1 -7 -5 -7 -7 0 -11 -3 -10 -7 1 -5 -3 -18 -10
-30 -7 -13 -9 -23 -5 -23 4 0 2 -5 -5 -12 -7 -7 -12 -20 -12 -30 0 -10 -5 -18
-12 -18 -6 0 -8 -3 -5 -6 3 -4 0 -16 -8 -28 -8 -11 -15 -28 -15 -38 0 -10 -5
-18 -11 -18 -5 0 -8 -4 -4 -9 3 -5 1 -12 -5 -16 -6 -4 -8 -11 -5 -16 4 -5 1
-9 -4 -9 -6 0 -10 -3 -9 -7 1 -5 -3 -18 -10 -29 -6 -12 -8 -24 -5 -28 3 -3 1
-6 -6 -6 -7 0 -10 -4 -6 -9 3 -5 1 -12 -5 -16 -6 -4 -8 -10 -5 -15 17 -28 -60
-30 -1066 -30 -862 0 -1030 2 -1020 13 6 8 8 17 4 20 -3 4 -1 7 6 7 7 0 9 5 6
10 -3 6 -1 10 4 10 6 0 10 3 9 8 -1 4 12 35 30 68 17 34 28 64 25 68 -4 3 -1
6 6 6 7 0 10 4 6 9 -3 5 0 15 7 23 7 7 14 20 16 28 2 8 8 17 13 18 5 2 7 8 3
13 -3 5 0 9 6 9 6 0 8 5 5 10 -3 6 -1 10 5 10 6 0 8 5 5 10 -3 6 -1 10 5 10 6
0 9 4 5 9 -3 5 0 15 7 23 7 7 14 20 16 28 2 8 7 17 10 20 4 3 8 12 10 20 2 8
8 17 13 18 5 2 7 8 3 13 -3 5 0 9 6 9 6 0 9 4 5 9 -3 5 0 15 7 23 7 7 14 20
16 28 2 8 7 17 10 20 4 3 8 12 10 20 2 8 8 17 13 18 5 2 7 8 3 13 -3 5 0 9 6
9 6 0 8 5 5 10 -3 6 -1 10 5 10 6 0 8 5 5 10 -3 6 -1 10 5 10 6 0 9 4 5 9 -3
5 1 16 9 24 8 8 12 17 9 21 -4 3 -1 6 6 6 7 0 10 4 7 9 -4 5 -2 11 3 13 10 4
86 150 83 161 -1 4 3 7 9 7 5 0 7 5 4 10 -3 6 -1 10 5 10 6 0 9 4 6 9 -3 5 1
14 9 21 8 7 12 16 9 21 -3 5 2 12 10 15 9 3 16 15 16 25 0 10 5 19 11 19 5 0
8 4 5 9 -3 4 3 19 14 32 12 12 23 33 26 46 4 13 10 23 16 23 5 0 6 5 3 10 -3
6 -1 10 5 10 6 0 8 5 5 10 -3 6 -1 10 5 10 6 0 8 5 5 10 -3 6 -1 10 5 10 6 0
8 5 5 10 -3 6 -1 10 5 10 6 0 9 4 6 9 -4 5 -2 11 2 13 5 1 26 39 47 83 22 44
44 83 50 87 5 4 6 8 2 8 -4 0 1 10 12 22 11 11 18 25 15 30 -3 4 0 8 6 8 6 0
8 4 5 10 -3 6 -1 10 4 10 6 0 11 6 11 14 0 7 7 19 15 26 8 7 12 16 9 21 -3 5
0 9 6 9 6 0 9 4 6 8 -3 5 3 18 13 29 20 21 45 63 46 76 0 4 7 12 15 17 8 5 12
10 8 10 -4 0 0 9 10 20 9 12 17 24 17 28 0 12 43 51 49 45 3 -3 8 2 12 11 3 9
10 13 15 10 5 -3 9 0 9 5 0 6 13 11 29 11 17 0 32 4 36 10 7 11 115 5 275 -15
19 -2 78 -9 130 -14 52 -6 106 -12 120 -13 22 -3 25 1 28 32 2 19 8 40 13 47
6 6 11 25 11 42 1 17 5 31 10 31 5 0 8 6 7 13 -1 6 1 24 5 38 4 14 8 32 9 40
2 8 6 20 10 27 5 7 9 26 9 42 1 17 5 33 10 36 4 3 8 18 8 34 0 16 4 31 8 34 5
3 9 19 10 36 0 16 3 39 7 49 3 11 8 28 10 38 2 10 9 35 14 56 5 20 7 37 4 37
-3 0 -1 6 4 13 5 6 10 27 12 46 1 19 6 40 11 46 5 6 11 26 13 45 3 19 10 48
16 64 6 16 9 31 7 34 -3 2 1 20 9 39 8 20 15 47 15 62 0 15 5 32 11 38 5 5 11
24 11 42 1 19 6 31 15 31 7 0 12 -3 11 -7z"/>
<path d="M1659 14466 c-6 -7 -87 -19 -116 -17 -12 0 -25 -4 -28 -9 -3 -5 -12
-7 -20 -3 -8 3 -15 0 -15 -7 0 -7 -6 -10 -14 -7 -8 3 -17 3 -21 -1 -4 -4 -10
-7 -13 -8 -27 -3 -62 -18 -62 -26 0 -5 -4 -6 -10 -3 -5 3 -10 1 -10 -5 0 -6
-4 -8 -10 -5 -5 3 -10 1 -10 -4 0 -6 -7 -11 -15 -11 -8 0 -23 -9 -32 -20 -10
-11 -22 -20 -28 -20 -14 0 -90 -73 -112 -108 -10 -15 -23 -31 -30 -35 -8 -5
-11 -12 -9 -16 3 -4 -5 -19 -17 -33 -13 -14 -33 -50 -46 -80 -13 -29 -28 -62
-33 -73 -5 -12 -10 -27 -11 -35 -2 -8 -5 -19 -9 -25 -6 -10 -15 -61 -23 -130
-2 -22 -7 -60 -10 -85 -3 -25 1 -92 10 -150 9 -58 16 -113 16 -122 0 -10 4
-18 10 -18 5 0 9 -13 9 -30 0 -16 4 -30 8 -30 4 0 8 -10 9 -22 1 -11 6 -24 12
-27 5 -4 13 -19 16 -34 4 -15 11 -27 16 -27 5 0 9 -6 9 -13 0 -7 10 -24 23
-37 12 -14 22 -28 22 -31 0 -9 155 -169 155 -160 0 3 5 -2 11 -11 5 -10 15
-18 22 -18 7 0 23 -12 36 -25 12 -14 27 -22 32 -19 5 3 9 1 9 -4 0 -10 80 -49
92 -45 5 2 8 -2 8 -7 0 -5 3 -9 8 -8 4 1 19 -4 35 -10 58 -24 111 -32 257 -36
103 -4 138 -1 230 20 13 3 29 9 36 15 6 5 14 6 17 2 4 -3 7 -1 7 5 0 7 4 11 8
9 12 -3 112 45 112 55 0 5 5 6 10 3 6 -3 10 -1 10 5 0 6 5 8 10 5 6 -3 13 1
16 9 3 9 10 16 15 16 22 0 213 189 214 212 0 3 3 9 7 13 3 3 9 -12 13 -34 4
-23 11 -41 16 -41 5 0 9 -13 9 -30 0 -16 5 -30 11 -30 6 0 9 -6 6 -14 -3 -8
-3 -17 1 -21 4 -4 8 -11 8 -16 1 -5 3 -11 4 -14 1 -3 4 -9 5 -15 1 -5 3 -11 5
-12 2 -4 7 -24 15 -62 3 -16 9 -34 13 -40 4 -6 7 -14 8 -18 1 -5 2 -9 3 -10 2
-2 5 -14 7 -28 3 -13 9 -29 14 -34 6 -6 10 -20 10 -32 0 -13 5 -26 10 -29 6
-4 8 -10 5 -15 -3 -5 -1 -11 4 -15 6 -3 8 -12 4 -20 -3 -8 0 -15 6 -15 6 0 8
-7 5 -15 -4 -8 -1 -15 5 -15 6 0 11 -11 11 -24 0 -14 5 -28 10 -31 6 -3 10
-17 10 -30 0 -13 5 -27 10 -30 6 -3 10 -16 10 -29 0 -12 3 -26 7 -30 4 -3 8
-16 10 -28 2 -12 8 -27 14 -35 6 -7 8 -13 5 -13 -4 0 -1 -10 6 -22 7 -13 11
-29 10 -35 -2 -7 2 -13 8 -13 5 0 9 -3 9 -7 -1 -5 0 -11 1 -15 3 -10 4 -12 20
-70 7 -27 16 -48 21 -48 5 0 9 -11 9 -23 0 -13 3 -27 7 -31 4 -3 8 -16 10 -29
2 -12 8 -26 13 -31 6 -6 10 -20 10 -32 0 -13 5 -26 10 -29 6 -4 8 -11 5 -16
-4 -5 -2 -9 2 -9 5 0 10 -12 11 -27 1 -15 8 -30 15 -35 6 -4 8 -8 3 -8 -5 0
-3 -7 4 -15 7 -8 9 -15 5 -15 -4 0 -2 -7 5 -15 7 -8 10 -15 7 -15 -7 0 32
-112 45 -127 6 -7 7 -13 3 -13 -4 0 -2 -6 4 -13 6 -8 8 -17 4 -20 -3 -4 0 -7
7 -7 7 0 11 -3 7 -6 -7 -7 28 -80 51 -106 8 -10 20 -18 27 -18 11 0 54 80 47
89 -2 2 1 7 6 10 6 3 12 15 14 26 1 11 7 23 11 26 4 3 9 16 10 27 1 12 5 22 9
22 4 0 7 3 7 8 -1 4 0 10 1 15 1 4 3 10 4 15 1 4 7 17 14 28 6 12 8 24 5 28
-3 3 -1 6 6 6 6 0 11 6 10 13 -2 13 6 41 22 69 5 10 9 27 9 38 0 11 4 20 10
20 5 0 12 16 16 35 3 19 10 38 15 41 5 3 9 13 9 23 0 10 7 31 14 47 8 15 13
31 10 36 -3 4 0 8 5 8 6 0 11 10 11 23 0 13 5 28 12 35 7 7 9 12 4 12 -4 0 0
10 8 21 8 12 12 28 9 35 -3 8 0 14 6 14 6 0 11 10 11 23 0 13 4 27 10 33 5 5
11 18 14 29 2 11 7 30 11 42 4 12 6 25 5 29 -1 4 3 10 8 13 6 4 12 18 14 31 2
14 7 31 11 38 5 6 5 12 0 12 -4 0 -2 4 4 8 7 5 14 20 15 35 1 15 6 27 10 27 4
0 8 13 8 29 0 16 4 31 9 33 6 2 12 17 15 33 2 17 5 32 6 35 1 3 2 8 1 13 0 4
4 7 10 7 6 0 9 6 6 14 -3 8 -3 17 1 21 4 4 8 11 8 16 1 5 3 11 4 14 1 3 4 10
5 15 1 6 4 12 5 15 1 3 3 8 5 13 1 4 7 20 14 36 6 16 13 36 15 45 2 9 6 23 9
31 4 8 9 26 11 40 3 14 5 26 7 28 1 1 3 7 4 12 1 6 4 12 5 15 1 3 3 9 4 14 0
5 4 13 9 17 4 4 7 20 7 36 0 15 5 28 11 28 5 0 7 5 3 11 -4 8 0 7 15 -1 12 -6
19 -15 16 -20 -3 -5 4 -14 16 -20 11 -7 18 -14 15 -17 -3 -3 21 -30 52 -60 90
-88 102 -98 102 -90 0 4 12 -3 26 -16 14 -12 28 -20 31 -19 3 2 9 -1 12 -6 8
-12 121 -69 146 -74 11 -1 23 -7 26 -11 17 -23 387 -32 421 -10 5 3 23 7 40
10 17 3 43 10 57 15 14 6 29 11 34 10 4 -1 7 2 7 8 0 6 4 9 8 8 12 -4 112 44
112 54 0 5 5 6 10 3 6 -3 13 1 16 9 3 9 11 16 18 16 6 0 34 22 60 49 27 28 54
49 60 48 5 -1 10 3 11 9 0 6 17 29 38 50 20 21 37 44 37 51 0 7 9 17 20 23 11
6 20 20 20 30 0 11 4 20 8 20 10 0 44 69 42 84 -1 5 3 12 9 15 6 4 12 16 14
26 1 11 5 25 8 30 4 6 9 26 13 45 3 19 9 53 13 75 10 51 10 228 0 280 -4 22
-9 58 -12 79 -3 22 -8 42 -12 45 -5 3 -10 17 -12 31 -1 14 -8 28 -15 32 -6 4
-8 8 -3 8 9 0 -42 102 -55 111 -5 3 -9 10 -9 15 0 5 -9 19 -19 32 -11 12 -17
22 -13 22 3 0 -23 29 -59 65 -36 36 -63 65 -59 65 6 1 -17 16 -34 22 -5 1 -20
13 -33 25 -14 13 -28 20 -33 17 -5 -3 -9 0 -9 5 0 6 -9 11 -19 11 -11 0 -21 4
-23 10 -1 5 -12 11 -23 13 -11 2 -30 8 -41 15 -12 6 -24 9 -27 6 -3 -3 -12 -2
-19 2 -14 9 -31 14 -68 19 -14 2 -45 7 -70 12 -102 18 -458 5 -592 -21 -16 -4
-40 -9 -55 -12 -16 -3 -36 -5 -45 -5 -10 0 -20 -4 -23 -10 -4 -5 -19 -9 -35
-9 -16 0 -32 -5 -35 -10 -4 -6 -9 -8 -13 -6 -4 2 -16 -2 -27 -10 -10 -8 -15
-14 -11 -14 5 0 4 -6 -2 -12 -8 -11 -35 -93 -47 -143 -1 -5 -5 -17 -8 -25 -4
-8 -8 -24 -10 -35 -2 -11 -7 -28 -11 -37 -4 -9 -8 -22 -10 -30 -1 -7 -5 -19
-10 -26 -4 -7 -5 -16 -2 -19 3 -3 1 -11 -4 -18 -5 -6 -11 -20 -13 -31 -2 -10
-7 -26 -10 -34 -4 -8 -8 -24 -10 -35 -2 -11 -7 -28 -11 -37 -4 -9 -9 -25 -11
-35 -2 -10 -4 -20 -6 -23 -1 -3 -3 -9 -4 -15 -1 -5 -5 -19 -9 -30 -20 -52 -26
-71 -29 -90 -2 -11 -9 -31 -14 -45 -6 -14 -8 -31 -6 -37 3 -7 0 -13 -7 -13 -7
0 -10 -6 -7 -14 3 -8 3 -17 -1 -21 -4 -4 -7 -10 -8 -13 0 -4 -6 -20 -12 -35
-7 -16 -12 -36 -12 -47 0 -10 -7 -30 -14 -46 -8 -15 -12 -32 -9 -37 3 -5 1
-12 -5 -16 -6 -3 -13 -18 -15 -31 -2 -14 -9 -38 -15 -53 -7 -16 -12 -38 -12
-51 0 -12 -4 -26 -8 -31 -8 -10 -30 -74 -36 -105 -2 -8 -8 -26 -13 -40 -6 -14
-8 -31 -6 -37 3 -7 0 -13 -6 -13 -7 0 -11 -6 -10 -12 2 -13 -2 -26 -22 -76 -5
-13 -9 -31 -9 -41 0 -10 -6 -31 -14 -46 -8 -15 -12 -34 -9 -41 3 -8 0 -14 -7
-14 -7 0 -10 -7 -7 -15 4 -8 2 -17 -2 -19 -8 -6 -21 -51 -27 -94 -2 -13 -8
-29 -13 -36 -6 -7 -12 -25 -13 -40 -1 -14 -6 -26 -11 -26 -5 0 -7 -6 -4 -14 3
-8 3 -17 -1 -21 -4 -4 -7 -10 -8 -13 0 -4 -6 -20 -12 -35 -7 -16 -12 -38 -12
-51 0 -12 -4 -26 -9 -32 -8 -8 -16 -39 -20 -79 -2 -18 -29 49 -36 88 -3 20
-11 37 -17 37 -5 0 -8 7 -5 15 4 8 2 17 -3 20 -5 3 -7 12 -3 20 3 8 1 15 -4
15 -5 0 -10 12 -11 26 -1 15 -6 32 -12 39 -5 6 -12 29 -15 51 -2 21 -9 40 -14
42 -6 2 -8 9 -5 17 3 7 1 16 -5 19 -6 4 -8 13 -4 21 3 8 0 15 -7 15 -7 0 -10
6 -7 14 3 7 -1 26 -10 42 -8 16 -16 38 -17 49 -6 42 -19 86 -27 91 -4 2 -6 11
-2 19 3 8 0 15 -7 15 -7 0 -10 6 -7 14 3 7 -1 25 -8 40 -8 14 -11 26 -7 26 3
0 1 5 -5 11 -6 6 -9 18 -6 25 3 8 0 14 -7 14 -7 0 -10 6 -7 14 3 7 -1 26 -9
41 -8 15 -11 31 -8 36 3 5 1 9 -3 9 -5 0 -10 12 -11 26 -1 15 -7 33 -13 40 -6
8 -8 14 -3 14 4 0 3 5 -3 11 -6 6 -9 18 -6 25 3 8 0 14 -6 14 -6 0 -11 13 -11
28 0 16 -3 32 -7 36 -5 4 -9 12 -9 17 -1 5 -2 10 -3 12 -2 1 -4 13 -7 27 -2
14 -7 32 -11 40 -3 8 -7 18 -7 22 -1 3 -4 9 -8 13 -4 4 -4 13 -1 21 3 8 0 14
-6 14 -6 0 -11 13 -11 29 0 17 -5 33 -10 36 -6 4 -8 10 -5 15 3 5 1 11 -5 15
-6 4 -8 11 -5 16 4 5 3 15 -2 22 -4 6 -9 21 -10 32 -2 11 -8 24 -13 29 -4 4
-6 15 -3 22 3 8 0 14 -6 14 -6 0 -11 13 -11 29 0 17 -5 33 -10 36 -6 4 -8 10
-5 15 3 5 1 11 -5 15 -6 4 -8 11 -4 16 3 5 1 15 -4 22 -5 7 -13 31 -17 55 -4
23 -11 42 -17 42 -6 0 -8 6 -5 14 3 7 -1 25 -8 40 -8 14 -11 26 -7 26 3 0 1 5
-5 11 -6 6 -9 17 -7 24 3 7 1 16 -5 20 -6 3 -11 17 -11 30 0 13 -4 26 -10 30
-5 3 -7 12 -3 20 3 8 1 15 -4 15 -5 0 -10 6 -11 13 -1 14 -10 51 -12 55 -2 1
-4 7 -5 12 -1 6 -3 11 -5 13 -1 1 -3 12 -4 24 -3 26 -9 34 -28 37 -7 1 -17 4
-23 7 -5 3 -23 6 -39 7 -16 1 -35 7 -42 13 -7 6 -28 11 -46 11 -18 0 -37 3
-43 7 -14 8 -29 10 -130 22 -101 12 -438 23 -446 15z m223 -279 c10 -2 21 -6
24 -10 4 -4 14 -7 23 -7 9 0 27 -9 41 -20 14 -11 32 -20 41 -20 9 0 20 -7 23
-16 3 -8 10 -13 14 -10 10 6 127 -111 127 -126 0 -5 5 -12 10 -16 12 -9 58
-101 61 -122 1 -8 8 -35 15 -60 16 -57 16 -153 0 -205 -7 -22 -13 -47 -13 -55
-1 -8 -4 -17 -7 -20 -8 -6 -34 -62 -35 -73 -1 -4 -12 -20 -26 -34 -14 -14 -25
-29 -25 -32 -1 -14 -17 -31 -26 -25 -5 3 -8 0 -7 -8 2 -7 -3 -12 -10 -10 -8 1
-11 -2 -8 -7 3 -5 -2 -15 -11 -22 -14 -12 -16 -12 -9 1 4 8 -4 3 -18 -12 -14
-16 -30 -28 -36 -28 -5 0 -10 -4 -10 -10 0 -5 -3 -9 -7 -8 -9 2 -66 -24 -73
-33 -3 -3 -16 -9 -30 -12 -14 -3 -36 -8 -49 -11 -33 -8 -171 -8 -201 -1 -14 3
-32 8 -40 10 -8 2 -16 4 -17 4 -2 1 -6 1 -9 0 -4 0 -10 4 -13 10 -4 6 -17 12
-28 14 -12 2 -31 11 -41 20 -10 9 -22 17 -26 17 -10 0 -52 33 -54 43 -1 4 -4
6 -6 5 -1 -2 -16 13 -32 32 -16 19 -36 41 -44 48 -11 10 -11 12 -1 6 9 -5 8 2
-5 19 -10 15 -23 27 -27 27 -5 0 -5 5 -2 10 3 6 1 10 -5 10 -6 0 -8 5 -5 10 3
6 1 10 -5 10 -6 0 -9 3 -7 8 3 4 0 18 -6 32 -10 26 -14 39 -23 80 -14 66 -15
107 -4 154 6 28 13 58 14 66 2 8 8 26 13 40 6 14 9 28 6 33 -2 4 1 7 7 7 6 0
8 5 5 10 -3 6 -1 10 5 10 6 0 9 4 5 9 -3 5 2 16 10 24 8 9 15 18 15 21 0 2 32
39 71 80 47 50 89 84 123 99 28 13 54 23 57 23 3 -1 12 4 20 10 8 5 32 12 54
13 22 2 42 5 45 8 5 4 137 -3 172 -10z m2640 0 c10 -2 21 -6 24 -10 4 -4 18
-7 31 -7 13 0 23 -4 23 -9 0 -8 37 -24 52 -22 3 0 12 -6 18 -14 7 -8 18 -15
25 -15 7 0 25 -14 39 -31 14 -17 26 -28 26 -24 0 4 12 -8 27 -27 16 -18 35
-39 43 -46 13 -12 13 -13 0 -6 -8 4 -3 -6 13 -23 15 -16 24 -32 20 -36 -3 -4
-1 -7 6 -7 7 0 9 -4 6 -10 -3 -5 -2 -10 2 -10 5 0 9 -10 10 -22 1 -11 7 -24
13 -28 6 -4 10 -11 9 -16 -1 -5 0 -11 1 -14 15 -37 21 -201 9 -217 -6 -6 -8
-17 -5 -22 4 -5 2 -12 -4 -16 -6 -4 -7 -11 -4 -17 4 -6 1 -14 -5 -18 -7 -4
-13 -17 -14 -28 -1 -12 -5 -22 -10 -22 -4 0 -6 -4 -3 -9 4 -5 3 -11 -1 -13
-11 -4 -53 -65 -53 -75 0 -5 -22 -31 -50 -58 -27 -27 -50 -45 -50 -40 0 5 -13
-4 -30 -20 -16 -16 -30 -25 -30 -21 0 4 -13 -2 -29 -13 -15 -11 -31 -18 -35
-14 -3 3 -6 1 -6 -5 0 -7 -13 -12 -28 -12 -15 0 -33 -5 -39 -11 -7 -7 -48 -10
-104 -10 -104 2 -125 4 -135 14 -4 4 -20 7 -36 7 -15 0 -28 5 -28 11 0 5 -4 7
-10 4 -5 -3 -10 -1 -10 5 0 6 -4 8 -10 5 -5 -3 -10 -1 -10 5 0 6 -4 9 -9 6 -5
-3 -12 1 -15 10 -3 8 -10 13 -15 10 -5 -4 -11 -3 -13 1 -1 5 -33 36 -70 71
-36 34 -64 62 -61 62 4 0 -4 8 -15 19 -12 10 -19 21 -15 25 3 3 1 6 -5 6 -6 0
-13 14 -17 30 -4 17 -10 30 -14 30 -4 0 -7 10 -8 22 -1 11 -6 24 -11 27 -15
11 -22 192 -10 246 14 59 59 157 86 187 13 14 25 30 25 35 1 4 6 7 12 5 5 -2
7 0 2 4 -9 9 52 74 70 74 8 0 16 7 19 15 4 8 12 15 20 15 8 0 14 5 14 12 0 6
3 9 6 5 4 -3 13 1 21 9 8 8 19 12 24 9 5 -4 9 -1 9 4 0 6 10 11 23 11 13 0 27
4 33 9 17 17 176 22 256 8z"/>
<path d="M1757 14063 c-2 -1 -26 -3 -53 -4 -27 -1 -55 -6 -61 -12 -7 -5 -13
-7 -13 -3 0 10 -75 -31 -90 -49 -8 -10 -25 -21 -37 -26 -13 -5 -27 -19 -32
-32 -5 -14 -17 -27 -26 -31 -9 -3 -13 -10 -10 -16 3 -5 2 -10 -4 -10 -6 0 -14
-12 -17 -27 -4 -16 -11 -34 -17 -40 -5 -7 -6 -13 -2 -13 4 0 3 -6 -2 -12 -9
-11 -11 -208 -3 -215 1 -2 3 -6 4 -10 1 -5 7 -18 14 -29 6 -12 8 -24 5 -28 -3
-3 -1 -6 5 -6 7 0 12 -7 12 -15 0 -8 5 -15 12 -15 6 0 9 -3 6 -6 -8 -7 101
-110 113 -106 5 1 9 -3 9 -9 0 -5 5 -7 10 -4 6 3 10 1 10 -5 0 -6 5 -8 10 -5
6 3 10 1 10 -4 0 -6 3 -10 8 -10 4 1 9 0 12 -1 33 -13 186 -24 208 -14 9 4 23
6 30 5 6 -1 12 3 12 10 0 6 7 9 15 5 8 -3 15 -1 15 5 0 6 5 7 10 4 6 -3 10 -1
10 4 0 6 6 11 14 11 19 0 148 129 141 141 -4 5 -1 9 5 9 6 0 8 5 5 10 -3 6 -1
10 5 10 6 0 8 5 5 10 -3 6 -2 10 3 10 10 0 24 73 25 135 2 82 -25 183 -53 200
-6 4 -8 11 -5 16 4 5 -1 12 -9 15 -9 3 -16 12 -16 18 0 14 -42 56 -56 56 -5 0
-20 12 -33 25 -12 14 -27 22 -32 19 -5 -3 -9 0 -9 6 0 6 -4 9 -9 6 -5 -4 -11
-2 -13 4 -3 9 -134 31 -141 23z"/>
<path d="M4350 14060 c-70 -7 -146 -41 -183 -83 -16 -18 -23 -23 -16 -12 13
18 13 19 -3 7 -10 -8 -16 -17 -15 -21 1 -4 -13 -22 -31 -40 -17 -18 -30 -37
-26 -42 3 -5 0 -9 -6 -9 -6 0 -9 -4 -5 -9 3 -5 1 -12 -5 -16 -6 -4 -8 -11 -5
-16 4 -5 2 -9 -3 -9 -8 0 -15 -58 -15 -130 0 -71 6 -130 15 -130 4 0 7 -3 6
-7 -4 -14 13 -53 23 -53 5 0 9 -7 9 -15 0 -8 5 -15 12 -15 6 0 9 -2 6 -5 -9
-9 79 -95 97 -95 8 0 15 -5 15 -11 0 -5 5 -7 10 -4 6 3 10 2 10 -4 0 -9 10
-14 62 -28 13 -4 61 -7 108 -6 106 1 120 2 120 11 0 4 10 9 22 9 13 1 24 7 26
13 2 5 10 10 18 10 8 0 14 5 14 10 0 6 3 9 8 8 9 -3 107 95 104 105 -1 4 2 7
6 7 11 0 45 75 45 98 0 9 3 22 7 27 10 13 10 137 1 150 -4 6 -8 24 -9 40 -1
17 -7 32 -12 33 -6 2 -8 8 -4 13 3 5 0 9 -6 9 -6 0 -8 5 -5 10 3 6 1 10 -5 10
-6 0 -9 4 -5 9 3 6 -3 14 -12 20 -10 6 -14 11 -8 11 13 0 -67 80 -81 80 -7 0
-15 7 -18 16 -3 8 -10 12 -16 9 -5 -3 -10 -1 -10 5 0 6 -4 9 -9 6 -5 -4 -11
-2 -13 4 -1 5 -12 11 -23 13 -11 2 -27 7 -35 10 -24 9 -100 12 -160 7z"/>
</g>
</svg>
